<?xml version="1.0" encoding="utf-8"?>
<!-- Generator: Adobe Illustrator 16.0.0, SVG Export Plug-In . SVG Version: 6.00 Build 0)  -->
<!DOCTYPE svg PUBLIC "-//W3C//DTD SVG 1.1//EN" "http://www.w3.org/Graphics/SVG/1.1/DTD/svg11.dtd">
<svg version="1.1" id="图层_1" xmlns="http://www.w3.org/2000/svg" xmlns:xlink="http://www.w3.org/1999/xlink" x="0px" y="0px"
	 width="480px" height="762px" viewBox="0 0 480 762" enable-background="new 0 0 480 762" xml:space="preserve">
<g>
	<path opacity="0.16" fill="#231F20" d="M207.708,374.233c2.168,16.267,30.989,25.864,64.416,21.458
		c33.436-4.42,58.775-21.194,56.643-37.449c-2.162-16.255-31.006-25.869-64.436-21.448
		C230.922,341.206,205.567,357.963,207.708,374.233z"/>
	<g>
		<g>
			<path fill="#DD9833" d="M277.816,287.997c-26.756-20.534-65.071-15.454-85.589,11.297
				c-20.509,26.756-15.449,65.075,11.309,85.599c26.762,20.513,65.085,15.439,85.597-11.328
				C309.643,346.813,304.578,308.496,277.816,287.997z"/>
			
				<radialGradient id="SVGID_1_" cx="1137.8242" cy="669.6523" r="131.6386" gradientTransform="matrix(-0.9914 0.131 -0.131 -0.9914 1390.5536 804.6738)" gradientUnits="userSpaceOnUse">
				<stop  offset="0" style="stop-color:#F2A42B"/>
				<stop  offset="1" style="stop-color:#FBD027"/>
			</radialGradient>
			<path fill="url(#SVGID_1_)" d="M176.306,341.855c4.426,33.423,35.122,56.938,68.536,52.512
				c33.426-4.415,56.93-35.089,52.514-68.51c-4.4-33.424-35.09-56.953-68.509-52.537
				C195.43,277.754,171.907,308.414,176.306,341.855z"/>
			<linearGradient id="SVGID_2_" gradientUnits="userSpaceOnUse" x1="279.5801" y1="390.0986" x2="201.4358" y2="287.2477">
				<stop  offset="0" style="stop-color:#FFFFFF"/>
				<stop  offset="0.5169" style="stop-color:#F6BF24"/>
				<stop  offset="1" style="stop-color:#DB8030"/>
			</linearGradient>
			<path fill="url(#SVGID_2_)" d="M289.24,326.918c-3.822-28.939-30.369-49.285-59.324-45.47
				c-28.938,3.817-49.306,30.376-45.479,59.321c3.822,28.942,30.391,49.305,59.324,45.482
				C272.715,382.432,293.072,355.861,289.24,326.918z"/>
			
				<radialGradient id="SVGID_3_" cx="301.6973" cy="321.5742" r="109.969" gradientTransform="matrix(0.9914 -0.131 0.131 0.9914 -52.5536 91.3262)" gradientUnits="userSpaceOnUse">
				<stop  offset="0" style="stop-color:#F2A42B"/>
				<stop  offset="1" style="stop-color:#FBD027"/>
			</radialGradient>
			<path fill="url(#SVGID_3_)" d="M287.412,327.183c-3.693-27.939-29.322-47.581-57.251-43.896
				c-27.92,3.705-47.581,29.32-43.891,57.239c3.69,27.934,29.33,47.575,57.244,43.884
				C271.443,380.726,291.088,355.09,287.412,327.183z"/>
		</g>
		<polygon fill="#FFFFFF" points="204.455,297.629 204.82,278.683 206.033,297.594 215.01,289.824 207.202,298.705 226.15,299.077 
			207.236,300.298 215.016,309.262 206.13,301.446 205.769,320.417 204.53,301.486 195.902,309.592 203.384,300.4 184.417,300.01 
			203.338,298.782 195.153,290.25 		"/>
		<polygon fill="#FFFFFF" points="266.529,371.727 266.727,361.582 267.365,371.722 272.168,367.541 267.99,372.296 
			278.141,372.493 268.021,373.174 272.168,377.955 267.416,373.772 267.209,383.923 266.568,373.804 261.961,378.133 
			265.93,373.209 255.789,373.007 265.92,372.351 261.518,367.784 		"/>
		<polygon fill="#FFFFFF" points="196.486,366.414 196.689,356.237 197.345,366.383 202.151,362.217 197.958,366.965 
			208.108,367.169 197.973,367.83 202.151,372.625 197.395,368.438 197.198,378.604 196.538,368.459 191.913,372.808 
			195.913,367.87 185.768,367.672 195.902,367.007 191.502,362.449 		"/>
		<g>
			<g>
				<path fill="#DD9833" d="M212.468,317.219l-2.055-10.378h8.648l1.743,10.378h11.146l1.681-10.378h10.694l1.684,10.378h11.232
					l1.689-10.378h8.629l-2.066,10.378h4.66v6.801h-5.965l-1.75,8.867h7.715v6.791h-9.09l-4.813,24.219h-9.703l-3.965-24.219h-7.179
					l-3.99,24.219h-9.686l-4.83-24.219h-9.076v-6.791h7.786l-1.765-8.867h-6.021v-6.801H212.468z M230.907,324.02h-9.021
					l1.442,8.867h6.114L230.907,324.02z M228.292,339.678h-3.822l1.904,11.687L228.292,339.678z M236.453,332.887h5.067
					l-1.463-8.867h-2.135L236.453,332.887z M256.104,324.02h-8.936l1.461,8.867h6.023L256.104,324.02z M253.51,339.678h-3.842
					l1.914,11.687L253.51,339.678z"/>
			</g>
			<g>
				<path fill="#FBDD2B" d="M210.312,315.057l-2.061-10.393h8.632l1.747,10.393h11.154l1.686-10.393h10.684l1.689,10.393h11.219
					l1.688-10.393h8.631l-2.064,10.393h4.658v6.796h-5.941l-1.756,8.862h7.697v6.795h-9.072l-4.828,24.203h-9.697l-3.97-24.203
					h-7.191l-3.963,24.203h-9.709l-4.813-24.203h-9.073v-6.795h7.779l-1.744-8.862h-6.035v-6.796H210.312z M228.714,321.853h-9.01
					l1.447,8.862h6.105L228.714,321.853z M226.125,337.511h-3.817l1.895,11.672L226.125,337.511z M234.301,330.715h5.025
					l-1.452-8.862h-2.136L234.301,330.715z M253.916,321.853h-8.926l1.441,8.862h6.033L253.916,321.853z M251.324,337.511h-3.822
					l1.918,11.672L251.324,337.511z"/>
			</g>
		</g>
		<polygon fill="#FFFFFF" points="257.172,314.94 257.379,304.781 258.039,314.916 262.834,310.749 258.652,315.495 
			268.799,315.701 258.668,316.368 262.844,321.164 258.078,316.965 257.877,327.151 257.215,316.997 252.607,321.331 
			256.605,316.403 246.451,316.211 256.596,315.544 252.195,310.993 		"/>
	</g>
</g>
</svg>
