<?xml version="1.0" encoding="utf-8"?>
<!-- Generator: Adobe Illustrator 16.0.0, SVG Export Plug-In . SVG Version: 6.00 Build 0)  -->
<!DOCTYPE svg PUBLIC "-//W3C//DTD SVG 1.1//EN" "http://www.w3.org/Graphics/SVG/1.1/DTD/svg11.dtd">
<svg version="1.1" id="图层_1" xmlns="http://www.w3.org/2000/svg" xmlns:xlink="http://www.w3.org/1999/xlink" x="0px" y="0px"
	 width="480px" height="762px" viewBox="0 0 480 762" enable-background="new 0 0 480 762" xml:space="preserve">
<g>
	
		<linearGradient id="SVGID_1_" gradientUnits="userSpaceOnUse" x1="129.3281" y1="76.0605" x2="291.5822" y2="80.3022" gradientTransform="matrix(0.9392 -0.3434 0.3434 0.9392 -102.7726 350.7052)">
		<stop  offset="0" style="stop-color:#FBD027"/>
		<stop  offset="0.8315" style="stop-color:#F2A42B"/>
		<stop  offset="1" style="stop-color:#FBD027"/>
	</linearGradient>
	<path fill="url(#SVGID_1_)" d="M85.555,369.522c9.217,13.302,39.577,13.925,67.831,1.396c28.264-12.53,43.724-33.481,34.517-46.788
		c-9.197-13.297-39.583-13.931-67.841-1.406C91.794,335.259,76.35,356.21,85.555,369.522z"/>
	
		<radialGradient id="SVGID_2_" cx="1052.0654" cy="1365.4014" r="122.326" gradientTransform="matrix(-0.9083 0.4029 -0.2958 -0.4277 1432.274 499.9578)" gradientUnits="userSpaceOnUse">
		<stop  offset="0" style="stop-color:#F2A42B"/>
		<stop  offset="1" style="stop-color:#FBD027"/>
	</radialGradient>
	<path fill="url(#SVGID_2_)" d="M82.537,362.407c9.268,13.394,39.856,14.038,68.328,1.411
		c28.456-12.618,44.001-33.724,34.744-47.134c-9.267-13.398-39.862-14.027-68.317-1.395
		C88.83,327.906,73.259,349.013,82.537,362.407z"/>
	
		<linearGradient id="SVGID_3_" gradientUnits="userSpaceOnUse" x1="255.1689" y1="108.8818" x2="202.3395" y2="39.3494" gradientTransform="matrix(0.9392 -0.3434 0.3434 0.9392 -102.7726 350.7052)">
		<stop  offset="0" style="stop-color:#FFFFFF"/>
		<stop  offset="0.5169" style="stop-color:#F6BF24"/>
		<stop  offset="1" style="stop-color:#DB8030"/>
	</linearGradient>
	<path fill="url(#SVGID_3_)" d="M178.691,319.746c-8.019-11.592-34.497-12.141-59.151-1.214
		c-24.631,10.938-38.11,29.208-30.096,40.809c8.044,11.602,34.522,12.141,59.161,1.213
		C173.256,349.627,186.715,331.372,178.691,319.746z"/>
	
		<radialGradient id="SVGID_4_" cx="380.5479" cy="-380.4004" r="102.2155" gradientTransform="matrix(0.9083 -0.4029 0.2958 0.4277 -47.8737 655.3225)" gradientUnits="userSpaceOnUse">
		<stop  offset="0" style="stop-color:#F2A42B"/>
		<stop  offset="1" style="stop-color:#FBD027"/>
	</radialGradient>
	<path fill="url(#SVGID_4_)" d="M177.118,320.46c-7.729-11.196-33.309-11.74-57.066-1.197
		c-23.787,10.556-36.764,28.186-29.035,39.373c7.761,11.205,33.304,11.728,57.081,1.181
		C171.861,349.262,184.863,331.646,177.118,320.46z"/>
	<polygon fill="#FFFFFF" points="99.254,334.078 96.503,325.571 100.636,333.564 107.198,327.255 101.828,333.691 118.427,327.804 
		102.107,334.388 110.343,335.878 101.325,335.24 104.077,343.76 99.93,335.773 93.722,342.107 98.772,335.636 82.145,341.522 
		98.447,334.955 89.931,333.783 	"/>
	<polygon fill="#FFFFFF" points="165.419,347.115 163.947,342.552 166.161,346.835 169.673,343.46 166.8,346.893 175.711,343.74 
		166.947,347.277 171.367,348.064 166.526,347.729 168.018,352.303 165.804,348.02 162.466,351.409 165.175,347.952 156.285,351.1 
		165.015,347.567 160.446,346.958 	"/>
	<polygon fill="#FFFFFF" points="103.44,367.1 101.97,362.524 104.177,366.818 107.689,363.433 104.826,366.878 113.713,363.727 
		104.98,367.26 109.39,368.056 104.548,367.721 106.024,372.269 103.802,367.994 100.492,371.385 103.188,367.939 94.286,371.084 
		103.016,367.563 98.447,366.938 	"/>
	<g>
		<g>
			<path fill="#DD9833" d="M111.866,337.224l-2.267-3.985l6.318-2.314l2.248,3.98l8.435-3.096l0.035-4.816l7.897-2.903l2.704,3.805
				l8.511-3.136l-0.495-4.633l6.389-2.35l0.37,4.689l3.537-1.304l1.396,2.796l-4.618,1.695l0.37,4.379l6.121-2.252l1.518,3.075
				l-7.384,2.69l1.141,13.773l-8.491,3.106l-7.61-11.377l-5.817,2.131l0.254,14.073l-8.451,3.086l-6.71-11.694l-7.333,2.689
				l-0.499-3.425l6.157-2.258l-2.13-3.717l-4.655,1.7l-0.442-3.136L111.866,337.224z M126.58,335.117l-6.938,2.544l2.038,3.75
				l4.837-1.771L126.58,335.117z M126.437,343.278l-3.096,1.126l3.005,5.466L126.437,343.278z M132.065,337.594l4.015-1.466
				l-2.405-3.625l-1.667,0.619L132.065,337.594z M146.059,327.961l-6.918,2.532l2.563,3.567l4.806-1.76L146.059,327.961z
				 M146.825,335.803l-3.086,1.131l3.74,5.212L146.825,335.803z"/>
		</g>
		<g>
			<path fill="#FBDD2B" d="M110.074,336.837l-2.212-3.912l6.299-2.319l2.167,3.949l8.385-3.081l0.11-4.796l7.805-2.869l2.651,3.761
				l8.464-3.106l-0.436-4.599l6.324-2.334l0.33,4.66l3.521-1.305l1.332,2.782l-4.576,1.695l0.302,4.319l6.08-2.228l1.46,3.039
				l-7.317,2.696l0.949,13.631l-8.414,3.081l-7.404-11.256l-5.755,2.106l0.075,13.951l-8.396,3.056l-6.506-11.562l-7.282,2.654
				l-0.452-3.395l6.111-2.237l-2.072-3.67l-4.612,1.695l-0.406-3.11L110.074,336.837z M124.666,334.752l-6.923,2.527l2.005,3.71
				l4.807-1.756L124.666,334.752z M124.421,342.837l-3.055,1.132l2.918,5.411L124.421,342.837z M130.076,337.209l3.958-1.462
				l-2.34-3.578l-1.643,0.599L130.076,337.209z M144.014,327.637l-6.873,2.532l2.486,3.522l4.771-1.75L144.014,327.637z
				 M144.673,335.412l-3.076,1.126l3.648,5.152L144.673,335.412z"/>
		</g>
	</g>
	<polygon fill="#FFFFFF" points="148.077,324.917 146.616,320.36 148.83,324.647 152.337,321.273 149.449,324.698 158.361,321.556 
		149.609,325.079 154.041,325.875 149.179,325.55 150.667,330.108 148.463,325.825 145.128,329.23 147.809,325.759 138.926,328.901 
		147.657,325.383 143.09,324.764 	"/>
</g>
<g>
	
		<linearGradient id="SVGID_5_" gradientUnits="userSpaceOnUse" x1="202.269" y1="444.4385" x2="364.5161" y2="448.68" gradientTransform="matrix(0.9992 0.0399 -0.0399 0.9992 21.7726 -112.4749)">
		<stop  offset="0" style="stop-color:#FBD027"/>
		<stop  offset="0.8315" style="stop-color:#F2A42B"/>
		<stop  offset="1" style="stop-color:#FBD027"/>
	</linearGradient>
	<path fill="url(#SVGID_5_)" d="M246.943,347.582c3.443,15.809,31.303,27.944,62.199,27.123
		c30.916-0.843,53.158-14.333,49.723-30.153c-3.436-15.803-31.287-27.934-62.211-27.095
		C265.775,318.278,243.512,331.774,246.943,347.582z"/>
	
		<radialGradient id="SVGID_6_" cx="1074.3047" cy="635.5693" r="122.3364" gradientTransform="matrix(-0.9933 0.0268 -0.1108 -0.5081 1383.967 609.4197)" gradientUnits="userSpaceOnUse">
		<stop  offset="0" style="stop-color:#F2A42B"/>
		<stop  offset="1" style="stop-color:#FBD027"/>
	</radialGradient>
	<path fill="url(#SVGID_6_)" d="M246.867,339.853c3.455,15.926,31.502,28.147,62.627,27.305
		c31.125-0.833,53.543-14.425,50.076-30.335c-3.486-15.936-31.521-28.162-62.637-27.32
		C265.816,310.346,243.391,323.938,246.867,339.853z"/>
	
		<linearGradient id="SVGID_7_" gradientUnits="userSpaceOnUse" x1="328.1064" y1="477.2539" x2="275.2698" y2="407.712" gradientTransform="matrix(0.9992 0.0399 -0.0399 0.9992 21.7726 -112.4749)">
		<stop  offset="0" style="stop-color:#FFFFFF"/>
		<stop  offset="0.5169" style="stop-color:#F6BF24"/>
		<stop  offset="1" style="stop-color:#DB8030"/>
	</linearGradient>
	<path fill="url(#SVGID_7_)" d="M352.014,337.005c-2.994-13.774-27.299-24.35-54.248-23.63c-26.955,0.726-46.352,12.5-43.352,26.275
		c3.014,13.789,27.289,24.381,54.238,23.64C335.605,362.564,355.023,350.811,352.014,337.005z"/>
	
		<radialGradient id="SVGID_8_" cx="357.5068" cy="346.8799" r="102.1901" gradientTransform="matrix(0.9933 -0.0268 0.1108 0.5081 -42.8986 190.9186)" gradientUnits="userSpaceOnUse">
		<stop  offset="0" style="stop-color:#F2A42B"/>
		<stop  offset="1" style="stop-color:#FBD027"/>
	</radialGradient>
	<path fill="url(#SVGID_8_)" d="M350.289,337.052c-2.904-13.292-26.311-23.502-52.326-22.798
		c-25.988,0.696-44.729,12.048-41.838,25.354c2.91,13.287,26.332,23.51,52.322,22.804
		C334.449,361.717,353.188,350.354,350.289,337.052z"/>
	<polygon fill="#FFFFFF" points="273.096,320.03 273.781,311.112 274.576,320.075 283.047,316.74 275.623,320.627 293.223,321.511 
		275.623,321.398 282.678,325.902 274.582,321.897 273.875,330.803 273.105,321.856 264.924,325.337 272.055,321.278 
		254.438,320.415 272.055,320.537 264.588,316.212 	"/>
	<polygon fill="#FFFFFF" points="329.344,357.256 329.719,352.485 330.129,357.296 334.666,355.494 330.686,357.595 
		340.129,358.063 330.686,357.991 334.475,360.412 330.129,358.255 329.775,363.045 329.344,358.245 324.953,360.113 
		328.764,357.931 319.361,357.468 328.764,357.528 324.779,355.226 	"/>
	<polygon fill="#FFFFFF" points="264.4,352.155 264.787,347.36 265.193,352.171 269.74,350.383 265.775,352.476 275.176,352.952 
		265.775,352.875 269.541,355.296 265.197,353.149 264.816,357.931 264.406,353.12 260.031,355.002 263.832,352.825 
		254.414,352.343 263.832,352.423 259.854,350.104 	"/>
	<g>
		<g>
			<path fill="#DD9833" d="M283.574,327.732l-0.6-4.532l6.752,0.25l0.539,4.537l8.982,0.345l1.893-4.445l8.367,0.314l1.078,4.557
				l9.068,0.355l1.293-4.482l6.781,0.25l-1.426,4.476l3.781,0.143l0.207,3.116l-4.902-0.178l-1.338,4.187l6.516,0.25l0.244,3.416
				l-7.852-0.31l-4.207,13.169l-8.99-0.36l-2.742-13.429l-6.172-0.244l-5.123,13.104l-8.998-0.35l-1.756-13.384l-7.801-0.299
				l0.852-3.365l6.529,0.264l-0.545-4.247l-4.943-0.194l0.768-3.06L283.574,327.732z M297.973,331.382l-7.404-0.294l0.482,4.253
				l5.137,0.198L297.973,331.382z M294.736,338.879l-3.273-0.142l0.68,6.212L294.736,338.879z M302.115,335.773l4.252,0.151
				l-0.869-4.267l-1.738-0.051L302.115,335.773z M318.711,332.174l-7.365-0.285l1.016,4.269l5.092,0.203L318.711,332.174z
				 M316.426,339.71l-3.277-0.122l1.467,6.253L316.426,339.71z"/>
		</g>
		<g>
			<path fill="#FBDD2B" d="M282.061,326.708l-0.553-4.486l6.701,0.262l0.492,4.477l8.912,0.336l1.918-4.386l8.338,0.319l1.029,4.501
				l9.01,0.331l1.355-4.421l6.723,0.269l-1.471,4.42l3.762,0.136l0.166,3.065l-4.881-0.176l-1.377,4.131l6.494,0.243l0.186,3.38
				l-7.793-0.31l-4.311,12.977l-8.953-0.354l-2.557-13.237l-6.137-0.237l-5.232,12.92l-8.912-0.365l-1.619-13.17l-7.754-0.305
				l0.867-3.315l6.5,0.25l-0.508-4.182l-4.906-0.209l0.783-3.009L282.061,326.708z M296.338,330.316l-7.342-0.284l0.432,4.187
				l5.09,0.194L296.338,330.316z M293.041,337.716l-3.244-0.137l0.605,6.131L293.041,337.716z M300.408,334.64l4.229,0.158
				l-0.811-4.192l-1.758-0.07L300.408,334.64z M316.945,331.097l-7.311-0.279l0.951,4.228l5.064,0.193L316.945,331.097z
				 M314.586,338.548l-3.266-0.121l1.41,6.147L314.586,338.548z"/>
		</g>
	</g>
	<polygon fill="#FFFFFF" points="321.734,330.149 322.115,325.373 322.527,330.169 327.064,328.373 323.096,330.463 332.51,330.951 
		323.096,330.885 326.875,333.29 322.527,331.145 322.162,335.914 321.75,331.118 317.357,332.992 321.178,330.803 311.758,330.332 
		321.178,330.403 317.188,328.089 	"/>
</g>
<g>
	<linearGradient id="SVGID_9_" gradientUnits="userSpaceOnUse" x1="131.1821" y1="374.9678" x2="249.4068" y2="374.9678">
		<stop  offset="0" style="stop-color:#FBD027"/>
		<stop  offset="0.1404" style="stop-color:#F8EFA9"/>
		<stop  offset="0.3876" style="stop-color:#FBD027"/>
		<stop  offset="0.6742" style="stop-color:#F2A42B"/>
		<stop  offset="0.927" style="stop-color:#FBD027"/>
		<stop  offset="1" style="stop-color:#F2A42B"/>
	</linearGradient>
	<path fill="url(#SVGID_9_)" d="M248.074,378.946c0,2.701-1.826,4.888-4.096,4.888H135.283c-2.249,0-4.101-2.187-4.101-4.888v-7.971
		c0-2.696,1.852-4.873,4.101-4.873h108.695c2.27,0,4.096,2.177,4.096,4.873V378.946z"/>
	<linearGradient id="SVGID_10_" gradientUnits="userSpaceOnUse" x1="131.1821" y1="356.9102" x2="249.4068" y2="356.9102">
		<stop  offset="0" style="stop-color:#FBD027"/>
		<stop  offset="0.1404" style="stop-color:#F8EFA9"/>
		<stop  offset="0.3876" style="stop-color:#FBD027"/>
		<stop  offset="0.6742" style="stop-color:#F2A42B"/>
		<stop  offset="0.927" style="stop-color:#FBD027"/>
		<stop  offset="1" style="stop-color:#F2A42B"/>
	</linearGradient>
	<path fill="url(#SVGID_10_)" d="M248.074,360.894c0,2.687-1.826,4.888-4.096,4.888H135.283c-2.249,0-4.101-2.202-4.101-4.888
		v-7.977c0-2.696,1.852-4.878,4.101-4.878h108.695c2.27,0,4.096,2.182,4.096,4.878V360.894z"/>
	<linearGradient id="SVGID_11_" gradientUnits="userSpaceOnUse" x1="131.1821" y1="338.8457" x2="249.4068" y2="338.8457">
		<stop  offset="0" style="stop-color:#FBD027"/>
		<stop  offset="0.1404" style="stop-color:#F8EFA9"/>
		<stop  offset="0.3876" style="stop-color:#FBD027"/>
		<stop  offset="0.6742" style="stop-color:#F2A42B"/>
		<stop  offset="0.927" style="stop-color:#FBD027"/>
		<stop  offset="1" style="stop-color:#F2A42B"/>
	</linearGradient>
	<path fill="url(#SVGID_11_)" d="M248.074,342.837c0,2.675-1.826,4.868-4.096,4.868H135.283c-2.249,0-4.101-2.192-4.101-4.868
		v-7.978c0-2.691,1.852-4.873,4.101-4.873h108.695c2.27,0,4.096,2.182,4.096,4.873V342.837z"/>
	<linearGradient id="SVGID_12_" gradientUnits="userSpaceOnUse" x1="131.1821" y1="320.7754" x2="249.4068" y2="320.7754">
		<stop  offset="0" style="stop-color:#FBD027"/>
		<stop  offset="0.1404" style="stop-color:#F8EFA9"/>
		<stop  offset="0.3876" style="stop-color:#FBD027"/>
		<stop  offset="0.6742" style="stop-color:#F2A42B"/>
		<stop  offset="0.927" style="stop-color:#FBD027"/>
		<stop  offset="1" style="stop-color:#F2A42B"/>
	</linearGradient>
	<path fill="url(#SVGID_12_)" d="M248.074,324.764c0,2.691-1.826,4.873-4.096,4.873H135.283c-2.249,0-4.101-2.182-4.101-4.873
		v-7.972c0-2.7,1.852-4.877,4.101-4.877h108.695c2.27,0,4.096,2.177,4.096,4.877V324.764z"/>
	<linearGradient id="SVGID_13_" gradientUnits="userSpaceOnUse" x1="131.1821" y1="303.0503" x2="249.4068" y2="303.0503">
		<stop  offset="0" style="stop-color:#FBD027"/>
		<stop  offset="0.1404" style="stop-color:#F8EFA9"/>
		<stop  offset="0.3876" style="stop-color:#FBD027"/>
		<stop  offset="0.6742" style="stop-color:#F2A42B"/>
		<stop  offset="0.927" style="stop-color:#FBD027"/>
		<stop  offset="1" style="stop-color:#F2A42B"/>
	</linearGradient>
	<path fill="url(#SVGID_13_)" d="M248.074,307.046c0,2.695-1.826,4.868-4.096,4.868H135.283c-2.249,0-4.101-2.173-4.101-4.868
		v-7.978c0-2.686,1.852-4.883,4.101-4.883h108.695c2.27,0,4.096,2.197,4.096,4.883V307.046z"/>
	<linearGradient id="SVGID_14_" gradientUnits="userSpaceOnUse" x1="131.1821" y1="284.9854" x2="249.4068" y2="284.9854">
		<stop  offset="0" style="stop-color:#FBD027"/>
		<stop  offset="0.1404" style="stop-color:#F8EFA9"/>
		<stop  offset="0.3876" style="stop-color:#FBD027"/>
		<stop  offset="0.6742" style="stop-color:#F2A42B"/>
		<stop  offset="0.927" style="stop-color:#FBD027"/>
		<stop  offset="1" style="stop-color:#F2A42B"/>
	</linearGradient>
	<path fill="url(#SVGID_14_)" d="M248.074,288.968c0,2.711-1.826,4.883-4.096,4.883H135.283c-2.249,0-4.101-2.172-4.101-4.883
		v-7.957c0-2.696,1.852-4.893,4.101-4.893h108.695c2.27,0,4.096,2.197,4.096,4.893V288.968z"/>
	<linearGradient id="SVGID_15_" gradientUnits="userSpaceOnUse" x1="131.1821" y1="266.9277" x2="249.4068" y2="266.9277">
		<stop  offset="0" style="stop-color:#FBD027"/>
		<stop  offset="0.1404" style="stop-color:#F8EFA9"/>
		<stop  offset="0.3876" style="stop-color:#FBD027"/>
		<stop  offset="0.6742" style="stop-color:#F2A42B"/>
		<stop  offset="0.927" style="stop-color:#FBD027"/>
		<stop  offset="1" style="stop-color:#F2A42B"/>
	</linearGradient>
	<path fill="url(#SVGID_15_)" d="M248.074,270.911c0,2.69-1.826,4.883-4.096,4.883H135.283c-2.249,0-4.101-2.192-4.101-4.883v-7.978
		c0-2.695,1.852-4.873,4.101-4.873h108.695c2.27,0,4.096,2.177,4.096,4.873V270.911z"/>
	<linearGradient id="SVGID_16_" gradientUnits="userSpaceOnUse" x1="131.1821" y1="248.8647" x2="249.4068" y2="248.8647">
		<stop  offset="0" style="stop-color:#FBD027"/>
		<stop  offset="0.1404" style="stop-color:#F8EFA9"/>
		<stop  offset="0.3876" style="stop-color:#FBD027"/>
		<stop  offset="0.6742" style="stop-color:#F2A42B"/>
		<stop  offset="0.927" style="stop-color:#FBD027"/>
		<stop  offset="1" style="stop-color:#F2A42B"/>
	</linearGradient>
	<path fill="url(#SVGID_16_)" d="M248.074,252.854c0,2.701-1.826,4.873-4.096,4.873H135.283c-2.249,0-4.101-2.172-4.101-4.873
		v-7.972c0-2.701,1.852-4.878,4.101-4.878h108.695c2.27,0,4.096,2.177,4.096,4.878V252.854z"/>
</g>
<g>
	<linearGradient id="SVGID_17_" gradientUnits="userSpaceOnUse" x1="185.8818" y1="352.4189" x2="304.1119" y2="352.4189">
		<stop  offset="0" style="stop-color:#FBD027"/>
		<stop  offset="0.1404" style="stop-color:#F8EFA9"/>
		<stop  offset="0.3876" style="stop-color:#FBD027"/>
		<stop  offset="0.6742" style="stop-color:#F2A42B"/>
		<stop  offset="0.927" style="stop-color:#FBD027"/>
		<stop  offset="1" style="stop-color:#F2A42B"/>
	</linearGradient>
	<path fill="url(#SVGID_17_)" d="M302.779,356.407c0,2.701-1.848,4.889-4.115,4.889H189.983c-2.264,0-4.101-2.188-4.101-4.889
		v-7.972c0-2.691,1.837-4.893,4.101-4.893h108.681c2.268,0,4.115,2.202,4.115,4.893V356.407z"/>
	<linearGradient id="SVGID_18_" gradientUnits="userSpaceOnUse" x1="185.8818" y1="334.3667" x2="304.1119" y2="334.3667">
		<stop  offset="0" style="stop-color:#FBD027"/>
		<stop  offset="0.1404" style="stop-color:#F8EFA9"/>
		<stop  offset="0.3876" style="stop-color:#FBD027"/>
		<stop  offset="0.6742" style="stop-color:#F2A42B"/>
		<stop  offset="0.927" style="stop-color:#FBD027"/>
		<stop  offset="1" style="stop-color:#F2A42B"/>
	</linearGradient>
	<path fill="url(#SVGID_18_)" d="M302.779,338.355c0,2.701-1.848,4.883-4.115,4.883H189.983c-2.264,0-4.101-2.182-4.101-4.883
		v-7.978c0-2.705,1.837-4.882,4.101-4.882h108.681c2.268,0,4.115,2.177,4.115,4.882V338.355z"/>
	<linearGradient id="SVGID_19_" gradientUnits="userSpaceOnUse" x1="185.8818" y1="316.3047" x2="304.1119" y2="316.3047">
		<stop  offset="0" style="stop-color:#FBD027"/>
		<stop  offset="0.1404" style="stop-color:#F8EFA9"/>
		<stop  offset="0.3876" style="stop-color:#FBD027"/>
		<stop  offset="0.6742" style="stop-color:#F2A42B"/>
		<stop  offset="0.927" style="stop-color:#FBD027"/>
		<stop  offset="1" style="stop-color:#F2A42B"/>
	</linearGradient>
	<path fill="url(#SVGID_19_)" d="M302.779,320.277c0,2.701-1.848,4.889-4.115,4.889H189.983c-2.264,0-4.101-2.188-4.101-4.889
		v-7.957c0-2.701,1.837-4.878,4.101-4.878h108.681c2.268,0,4.115,2.177,4.115,4.878V320.277z"/>
	<linearGradient id="SVGID_20_" gradientUnits="userSpaceOnUse" x1="185.8818" y1="298.2314" x2="304.1119" y2="298.2314">
		<stop  offset="0" style="stop-color:#FBD027"/>
		<stop  offset="0.1404" style="stop-color:#F8EFA9"/>
		<stop  offset="0.3876" style="stop-color:#FBD027"/>
		<stop  offset="0.6742" style="stop-color:#F2A42B"/>
		<stop  offset="0.927" style="stop-color:#FBD027"/>
		<stop  offset="1" style="stop-color:#F2A42B"/>
	</linearGradient>
	<path fill="url(#SVGID_20_)" d="M302.779,302.22c0,2.691-1.848,4.878-4.115,4.878H189.983c-2.264,0-4.101-2.188-4.101-4.878v-7.961
		c0-2.711,1.837-4.894,4.101-4.894h108.681c2.268,0,4.115,2.182,4.115,4.894V302.22z"/>
	<linearGradient id="SVGID_21_" gradientUnits="userSpaceOnUse" x1="185.8818" y1="280.5156" x2="304.1119" y2="280.5156">
		<stop  offset="0" style="stop-color:#FBD027"/>
		<stop  offset="0.1404" style="stop-color:#F8EFA9"/>
		<stop  offset="0.3876" style="stop-color:#FBD027"/>
		<stop  offset="0.6742" style="stop-color:#F2A42B"/>
		<stop  offset="0.927" style="stop-color:#FBD027"/>
		<stop  offset="1" style="stop-color:#F2A42B"/>
	</linearGradient>
	<path fill="url(#SVGID_21_)" d="M302.779,284.502c0,2.69-1.848,4.877-4.115,4.877H189.983c-2.264,0-4.101-2.187-4.101-4.877v-7.967
		c0-2.696,1.837-4.883,4.101-4.883h108.681c2.268,0,4.115,2.188,4.115,4.883V284.502z"/>
	<linearGradient id="SVGID_22_" gradientUnits="userSpaceOnUse" x1="185.8818" y1="262.4536" x2="304.1119" y2="262.4536">
		<stop  offset="0" style="stop-color:#FBD027"/>
		<stop  offset="0.1404" style="stop-color:#F8EFA9"/>
		<stop  offset="0.3876" style="stop-color:#FBD027"/>
		<stop  offset="0.6742" style="stop-color:#F2A42B"/>
		<stop  offset="0.927" style="stop-color:#FBD027"/>
		<stop  offset="1" style="stop-color:#F2A42B"/>
	</linearGradient>
	<path fill="url(#SVGID_22_)" d="M302.779,266.439c0,2.691-1.848,4.878-4.115,4.878H189.983c-2.264,0-4.101-2.187-4.101-4.878
		v-7.977c0-2.706,1.837-4.873,4.101-4.873h108.681c2.268,0,4.115,2.167,4.115,4.873V266.439z"/>
	<linearGradient id="SVGID_23_" gradientUnits="userSpaceOnUse" x1="185.8818" y1="244.3887" x2="304.1119" y2="244.3887">
		<stop  offset="0" style="stop-color:#FBD027"/>
		<stop  offset="0.1404" style="stop-color:#F8EFA9"/>
		<stop  offset="0.3876" style="stop-color:#FBD027"/>
		<stop  offset="0.6742" style="stop-color:#F2A42B"/>
		<stop  offset="0.927" style="stop-color:#FBD027"/>
		<stop  offset="1" style="stop-color:#F2A42B"/>
	</linearGradient>
	<path fill="url(#SVGID_23_)" d="M302.779,248.369c0,2.699-1.848,4.881-4.115,4.881H189.983c-2.264,0-4.101-2.182-4.101-4.881V240.4
		c0-2.696,1.837-4.873,4.101-4.873h108.681c2.268,0,4.115,2.177,4.115,4.873V248.369z"/>
	<linearGradient id="SVGID_24_" gradientUnits="userSpaceOnUse" x1="185.8818" y1="226.3164" x2="304.1119" y2="226.3164">
		<stop  offset="0" style="stop-color:#FBD027"/>
		<stop  offset="0.1404" style="stop-color:#F8EFA9"/>
		<stop  offset="0.3876" style="stop-color:#FBD027"/>
		<stop  offset="0.6742" style="stop-color:#F2A42B"/>
		<stop  offset="0.927" style="stop-color:#FBD027"/>
		<stop  offset="1" style="stop-color:#F2A42B"/>
	</linearGradient>
	<path fill="url(#SVGID_24_)" d="M302.779,230.316c0,2.694-1.848,4.856-4.115,4.856H189.983c-2.264,0-4.101-2.162-4.101-4.856
		v-7.979c0-2.696,1.837-4.877,4.101-4.877h108.681c2.268,0,4.115,2.182,4.115,4.877V230.316z"/>
</g>
<g>
	<linearGradient id="SVGID_25_" gradientUnits="userSpaceOnUse" x1="72.3423" y1="373.1436" x2="246.8907" y2="377.7066">
		<stop  offset="0" style="stop-color:#FBD027"/>
		<stop  offset="0.8315" style="stop-color:#F2A42B"/>
		<stop  offset="1" style="stop-color:#FBD027"/>
	</linearGradient>
	<path fill="url(#SVGID_25_)" d="M116.54,379.9c4.354,16.841,34.836,28.701,68.028,26.467c33.176-2.217,56.532-17.672,52.148-34.526
		c-4.375-16.849-34.847-28.7-68.034-26.472C135.491,347.582,112.155,363.051,116.54,379.9z"/>
	
		<radialGradient id="SVGID_26_" cx="1181.999" cy="794.9922" r="131.6178" gradientTransform="matrix(-0.9914 0.0665 -0.131 -0.5033 1390.5536 666.7214)" gradientUnits="userSpaceOnUse">
		<stop  offset="0" style="stop-color:#F2A42B"/>
		<stop  offset="1" style="stop-color:#FBD027"/>
	</radialGradient>
	<path fill="url(#SVGID_26_)" d="M116.088,371.604c4.431,16.955,35.101,28.912,68.535,26.654
		c33.426-2.228,56.923-17.804,52.515-34.775c-4.411-16.971-35.084-28.908-68.516-26.66
		C135.202,339.062,111.674,354.637,116.088,371.604z"/>
	<linearGradient id="SVGID_27_" gradientUnits="userSpaceOnUse" x1="207.7109" y1="408.4678" x2="150.8608" y2="333.6435">
		<stop  offset="0" style="stop-color:#FFFFFF"/>
		<stop  offset="0.5169" style="stop-color:#F6BF24"/>
		<stop  offset="1" style="stop-color:#DB8030"/>
	</linearGradient>
	<path fill="url(#SVGID_27_)" d="M229.022,364.031c-3.825-14.693-30.379-25.027-59.339-23.083
		c-28.919,1.929-49.281,15.409-45.469,30.106c3.822,14.697,30.391,25.035,59.318,23.082
		C212.501,392.197,232.854,378.729,229.022,364.031z"/>
	
		<radialGradient id="SVGID_28_" cx="257.6777" cy="194.9063" r="109.9422" gradientTransform="matrix(0.9914 -0.0665 0.131 0.5033 -52.5546 305.2401)" gradientUnits="userSpaceOnUse">
		<stop  offset="0" style="stop-color:#F2A42B"/>
		<stop  offset="1" style="stop-color:#FBD027"/>
	</radialGradient>
	<path fill="url(#SVGID_28_)" d="M227.174,364.142c-3.685-14.158-29.314-24.137-57.236-22.264
		c-27.919,1.862-47.562,14.879-43.876,29.05c3.68,14.17,29.324,24.148,57.233,22.275C211.217,391.33,230.86,378.322,227.174,364.142
		z"/>
	<polygon fill="#FFFFFF" points="143.459,349.155 143.81,339.539 145.048,349.125 154.005,345.181 146.206,349.699 165.152,349.871 
		146.229,350.496 154.021,355.057 145.128,351.094 144.738,360.717 143.535,351.1 134.897,355.226 142.374,350.545 123.423,350.354 
		142.357,349.744 134.147,345.415 	"/>
	<polygon fill="#FFFFFF" points="205.509,386.778 205.707,381.617 206.367,386.768 211.174,384.65 206.99,387.063 217.135,387.157 
		206.997,387.499 211.174,389.934 206.421,387.813 206.224,392.965 205.564,387.824 200.946,390.021 204.934,387.524 
		194.794,387.422 204.925,387.083 200.541,384.758 	"/>
	<polygon fill="#FFFFFF" points="135.481,384.047 135.68,378.916 136.333,384.042 141.14,381.947 136.962,384.357 147.119,384.459 
		136.999,384.783 141.14,387.225 136.385,385.098 136.185,390.258 135.526,385.108 130.918,387.305 134.904,384.818 
		124.773,384.713 134.897,384.371 130.508,382.063 	"/>
	<g>
		<g>
			<path fill="#DD9833" d="M155.051,356.981l-0.833-4.853l7.262-0.01l0.777,4.853l9.674-0.025l1.832-4.842l9.02-0.035l1.344,4.857
				l9.754-0.012l1.218-4.866l7.303-0.025l-1.344,4.887l4.082-0.01l0.338,3.33l-5.277,0.016l-1.264,4.563l7.04-0.015l0.391,3.663
				h-8.45l-3.944,14.343h-9.719l-3.496-14.333l-6.65,0.021l-4.953,14.313h-9.679l-2.457-14.313l-8.403,0.011l0.771-3.64h7.04
				l-0.783-4.563l-5.318,0.01l0.689-3.324H155.051z M170.714,360.29l-7.976,0.005l0.676,4.553l5.537-0.014L170.714,360.29z
				 M167.542,368.486h-3.538l1,6.645L167.542,368.486z M175.326,364.818h4.588l-1.118-4.538h-1.887L175.326,364.818z
				 M193.019,360.254l-7.933,0.01l1.278,4.553l5.499-0.01L193.019,360.254z M190.892,368.466h-3.538l1.842,6.648L190.892,368.466z"
				/>
		</g>
		<g>
			<path fill="#FBDD2B" d="M153.366,355.951l-0.766-4.801l7.21-0.005l0.737,4.796l9.602-0.025l1.869-4.792l8.963-0.03l1.3,4.796
				l9.677-0.02l1.268-4.801l7.268-0.026l-1.405,4.817h4.056l0.305,3.299l-5.258,0.004l-1.3,4.506l6.988-0.01l0.356,3.609h-8.396
				l-4.082,14.144h-9.622l-3.34-14.123h-6.591l-5.085,14.123h-9.602l-2.305-14.098l-8.338,0.015l0.782-3.608h7.013l-0.73-4.481
				l-5.298,0.005l0.729-3.294H153.366z M168.887,359.214l-7.918,0.015l0.649,4.484l5.492-0.018L168.887,359.214z M165.644,367.299
				h-3.493l0.923,6.562L165.644,367.299z M173.438,363.686h4.552l-1.054-4.492h-1.864L173.438,363.686z M191.064,359.174
				l-7.876,0.01l1.218,4.491h5.462L191.064,359.174z M188.862,367.285h-3.527l1.775,6.566L188.862,367.285z"/>
		</g>
	</g>
	<polygon fill="#FFFFFF" points="196.165,357.931 196.367,352.79 197.028,357.931 201.839,355.809 197.647,358.22 207.803,358.337 
		197.667,358.667 201.839,361.099 197.068,358.977 196.866,364.122 196.22,358.977 191.591,361.184 195.611,358.682 
		185.441,358.575 195.591,358.245 191.202,355.931 	"/>
</g>
<g>
	<path opacity="0.16" fill="#231F20" d="M238.253,366.02c2.168,16.267,30.989,25.864,64.415,21.458
		c33.436-4.419,58.775-21.194,56.643-37.449c-2.16-16.255-31.004-25.869-64.434-21.448
		C261.469,332.992,236.113,349.75,238.253,366.02z"/>
	<g>
		<g>
			<path fill="#DD9833" d="M308.361,279.783c-26.754-20.534-65.07-15.454-85.588,11.297c-20.509,26.756-15.449,65.075,11.309,85.599
				c26.762,20.512,65.084,15.438,85.598-11.329C340.188,338.599,335.125,300.282,308.361,279.783z"/>
			
				<radialGradient id="SVGID_29_" cx="1106.4668" cy="673.7949" r="131.6282" gradientTransform="matrix(-0.9914 0.131 -0.131 -0.9914 1390.5536 804.6738)" gradientUnits="userSpaceOnUse">
				<stop  offset="0" style="stop-color:#F2A42B"/>
				<stop  offset="1" style="stop-color:#FBD027"/>
			</radialGradient>
			<path fill="url(#SVGID_29_)" d="M206.852,333.642c4.426,33.423,35.123,56.938,68.537,52.513
				c33.426-4.416,56.928-35.09,52.514-68.511c-4.4-33.424-35.092-56.953-68.51-52.537C225.976,269.54,202.453,300.2,206.852,333.642
				z"/>
			<linearGradient id="SVGID_30_" gradientUnits="userSpaceOnUse" x1="310.126" y1="381.8838" x2="231.9817" y2="279.0328">
				<stop  offset="0" style="stop-color:#FFFFFF"/>
				<stop  offset="0.5169" style="stop-color:#F6BF24"/>
				<stop  offset="1" style="stop-color:#DB8030"/>
			</linearGradient>
			<path fill="url(#SVGID_30_)" d="M319.785,318.705c-3.82-28.939-30.367-49.285-59.322-45.47
				c-28.938,3.817-49.306,30.376-45.479,59.321c3.822,28.942,30.391,49.304,59.323,45.482
				C303.262,374.217,323.617,347.647,319.785,318.705z"/>
			
				<radialGradient id="SVGID_31_" cx="333.0566" cy="317.4326" r="109.969" gradientTransform="matrix(0.9914 -0.131 0.131 0.9914 -52.5536 91.3262)" gradientUnits="userSpaceOnUse">
				<stop  offset="0" style="stop-color:#F2A42B"/>
				<stop  offset="1" style="stop-color:#FBD027"/>
			</radialGradient>
			<path fill="url(#SVGID_31_)" d="M317.959,318.969c-3.695-27.939-29.324-47.581-57.252-43.896
				c-27.92,3.705-47.581,29.32-43.891,57.239c3.69,27.934,29.331,47.574,57.245,43.884
				C301.988,372.512,321.633,346.876,317.959,318.969z"/>
		</g>
		<polygon fill="#FFFFFF" points="235,289.415 235.366,270.469 236.579,289.38 245.557,281.61 237.748,290.491 256.695,290.863 
			237.782,292.084 245.563,301.048 236.676,293.232 236.315,312.204 235.076,293.272 226.448,301.378 233.93,292.187 
			214.963,291.796 233.884,290.568 225.699,282.036 		"/>
		<polygon fill="#FFFFFF" points="297.076,363.513 297.273,353.368 297.912,363.508 302.715,359.327 298.537,364.082 
			308.686,364.279 298.568,364.96 302.715,369.741 297.963,365.558 297.754,375.709 297.115,365.59 292.508,369.919 
			296.477,364.996 286.336,364.793 296.467,364.137 292.064,359.57 		"/>
		<polygon fill="#FFFFFF" points="227.032,358.2 227.235,348.023 227.891,358.169 232.697,354.003 228.503,358.751 238.654,358.956 
			228.519,359.616 232.697,364.411 227.941,360.225 227.744,370.391 227.083,360.245 222.458,364.594 226.458,359.656 
			216.314,359.458 226.448,358.793 222.048,354.235 		"/>
		<g>
			<g>
				<path fill="#DD9833" d="M243.014,309.005l-2.054-10.378h8.648l1.744,10.378h11.146l1.68-10.378h10.693l1.686,10.378h11.23
					l1.689-10.378h8.631l-2.068,10.378h4.66v6.801h-5.963l-1.75,8.867h7.713v6.791h-9.09l-4.813,24.219h-9.703l-3.963-24.219h-7.18
					l-3.99,24.219h-9.686l-4.83-24.219h-9.077v-6.791h7.786l-1.764-8.867h-6.022v-6.801H243.014z M261.453,315.806h-9.021
					l1.443,8.867h6.113L261.453,315.806z M258.838,331.464h-3.822l1.904,11.687L258.838,331.464z M266.998,324.673h5.066
					l-1.463-8.867h-2.135L266.998,324.673z M286.65,315.806h-8.936l1.459,8.867h6.025L286.65,315.806z M284.057,331.464h-3.844
					l1.916,11.687L284.057,331.464z"/>
			</g>
			<g>
				<path fill="#FBDD2B" d="M240.858,306.843l-2.061-10.393h8.632l1.746,10.393h11.154l1.686-10.393h10.684l1.689,10.393h11.221
					l1.686-10.393h8.633l-2.066,10.393h4.66v6.796h-5.943l-1.756,8.862h7.699v6.795h-9.074l-4.828,24.203h-9.697l-3.969-24.203
					h-7.191l-3.963,24.203h-9.709l-4.813-24.203h-9.074v-6.795h7.779l-1.744-8.862h-6.035v-6.796H240.858z M259.26,313.639h-9.01
					l1.447,8.862h6.105L259.26,313.639z M256.672,329.297h-3.818l1.895,11.672L256.672,329.297z M264.848,322.501h5.025
					l-1.453-8.862h-2.135L264.848,322.501z M284.463,313.639h-8.928l1.443,8.862h6.033L284.463,313.639z M281.871,329.297h-3.822
					l1.918,11.672L281.871,329.297z"/>
			</g>
		</g>
		<polygon fill="#FFFFFF" points="287.717,306.727 287.926,296.567 288.584,306.702 293.381,302.535 289.199,307.281 
			299.344,307.487 289.213,308.154 293.391,312.95 288.625,308.751 288.422,318.937 287.762,308.783 283.154,313.117 
			287.152,308.189 276.998,307.997 287.143,307.331 282.742,302.779 		"/>
	</g>
</g>
</svg>
