<?xml version="1.0" encoding="utf-8"?>
<!-- Generator: Adobe Illustrator 16.0.0, SVG Export Plug-In . SVG Version: 6.00 Build 0)  -->
<!DOCTYPE svg PUBLIC "-//W3C//DTD SVG 1.1//EN" "http://www.w3.org/Graphics/SVG/1.1/DTD/svg11.dtd">
<svg version="1.1" id="图层_1" xmlns="http://www.w3.org/2000/svg" xmlns:xlink="http://www.w3.org/1999/xlink" x="0px" y="0px"
	 width="480px" height="762px" viewBox="0 0 480 762" enable-background="new 0 0 480 762" xml:space="preserve">
<path fill-rule="evenodd" clip-rule="evenodd" fill="#B81119" d="M226.364,338.115c1.976,0.408,5.84-1.044,6.239,0.346
	c16.525,3.007,22.419,12.264,20.818,24.988c-0.386,3.031-2.06,5.9-2.791,9.071c-0.678,2.926-0.438,5.829-1.271,8.257
	c-0.519,1.52-1.917,2.665-2.429,4.206c-2.129,6.411-2.61,12.312-1.892,17.459c0.616,0.116,1.235,0.229,1.852,0.347
	c0.008,1.017-0.662,1.049-0.659,2.069c3.807,7.032,16.089,4.222,21.796,2.151c0.289-0.807-0.384-1.143,0.297-1.586
	c2.003,0.25,4.246-0.621,4.761-3.496c0.648,0.156,1.271,0.277,1.641,0.031c2.982-2.838,6.326-5.146,9.195-8.148
	c0.097-0.758-0.279-1.193-0.185-1.951c0.41-0.301,1.198-0.048,1.905,0.081c5.271-7.86,10.945-13.337,15.144-22.383
	c0.18-0.816-0.693-0.911-0.184-1.952c3.06-1.696,3.894-6.555,6.065-9.006c5.272-5.951,20.438-5.155,26.129,2.414
	c1.302,3.146,0.051,6.383-0.503,10.046c-0.443,0.59-1.366,0.478-1.624,1.341c-0.729,3.156-4.018,4.153-4.296,6.871
	c-3.416,1.529-5.063,5.645-8.039,7.814c-0.36,0.256-0.473,0.883-0.559,1.541c-0.651-0.162-1.124-0.07-1.424,0.281
	c-2.656,2.863-5.869,4.915-8.568,7.717c0.165,0.965,1.608,1.056,1.194,2.416c-1.175,0.932-2.787,0.278-3.707-0.693
	c-2.145,2.256-6.208,3.256-7.525,6.541c-0.599,0.432-1.276-0.105-1.853-0.346c-3.244,3.241-8.3,3.842-11.05,7.801
	c-0.528-0.098-1.06-0.197-1.586-0.295c-7.138,3.515-15.001,5.967-23.578,7.379c-0.388,0.558-0.773,1.117-1.354,1.391
	c-1.069,0.039-0.219-1.236-1.442-1.093c-12.564,3.454-21.498-3.933-23.209-13.652c-1.999-11.368,5.837-29.715-0.275-38.141
	c-2.459-3.396-12.146-8.014-17.179-4.855c-0.787,0.078-0.614-0.503-1.273-0.511c-6.822,2.134-13.293,5.734-18.892,10.172
	c-0.616,0.489-0.847,1.448-1.454,1.92c-3.579,2.793-7.725,4.864-11.048,7.801c-3.924,3.465-7.141,8.064-10.037,12.65
	c4.788,1.438,11.12-0.55,13.403,3.053c-10.44,10.822-20.999,21.469-34.946,27.178c-0.775,1.002-1.569,1.977-3.31,1.574
	c-0.828-0.459,0.491-1.473-1.174-1.043c0.384-3.49,1.538-6.108-0.104-8.238c-0.098-1.043,0.797-0.633,0.824-1.49
	c-0.798-13.536-1.232-28.137,4.295-40.58c1.879-0.753,3.39,0.842,4.735,2.529c2.591,3.254,4.465,8.223,7.105,10.372
	c1.63-2.113,2.902-4.748,4.776-6.506c-0.05-0.583-0.516-0.877-0.231-1.69c0.684,0.102,1.289,0.087,1.688-0.231
	c2.439-3.616,6.206-7.634,9.473-11.109c-0.115-0.614-0.517-1.032-0.184-1.952c1.076-0.082,1.065,0.341,1.903,0.08
	c0.022-0.785-0.782-1.005-0.447-2c0.664-0.043,1.278-0.159,2.168,0.13c3.396-3.473,6.888-6.803,10.167-10.432
	c-0.201-0.397-0.076-1.025-0.279-1.424c0.558-0.203,1.306,0.218,2.217-0.133c7.72-7.603,16.687-13.391,28.335-15.259
	c0.136-0.703,0.184-1.531,0.61-1.806C225.984,336.223,225.573,337.581,226.364,338.115 M318.784,364.151
	c3.455,1.636,5.995,3.896,10.313,4.94c4.14-8.634-6.228-11.475-12.831-11.987c2.926,3.459,9.864,4.17,12.829,7.602
	c-0.082,1.003-1.368,0.25-1.571,1.078c-2.494-0.528-6.063-1.438-8.426-1.85C318.593,363.847,318.198,363.23,318.784,364.151
	 M323.318,363.354c-3.726-1.507-9.681-7.689-12.991-3.797C315.117,360.982,317.901,362.67,323.318,363.354 M231.998,349.033
	c0.916-1.13,1.732-2.414,2.166-4.253c-0.441-0.083-0.885-0.165-1.324-0.248C232.469,346.471,232.665,347.352,231.998,349.033
	 M241.908,347.322c-0.73-0.498-1.279-1.124-2.498-1.289c-0.871,1.876-1.043,4.77-2.246,6.159
	C239.121,351.115,240.412,349.069,241.908,347.322 M230.069,359.36c3.883-3.527,6.877-7.391,8.016-13.574
	C234.419,348.862,232.14,353.959,230.069,359.36 M225.899,359.678c1.64-4.145,5.908-9.591,5.302-15.179
	c-0.365,0.031-0.503,0.391-0.894,0.382C228.732,349.622,225.617,354.136,225.899,359.678 M226.519,346.093
	c0.87-0.304,1.424-1.071,1.77-2.137c-0.529-0.1-1.061-0.198-1.589-0.297C226.287,344.711,226.852,345.093,226.519,346.093
	 M221.513,355.295c0.627-3.438,0.939-6.922,2.026-10.856c-1.389-0.117-2.289,0.479-3.641,0.417
	C220.12,348.552,220.991,351.803,221.513,355.295 M322.162,368.071c-3.959-2.752-8.164-5.334-13.457-7.174
	c-1.061,0.25-1.434,1.506-1.867,2.666C311.234,365.956,317.209,366.484,322.162,368.071 M245.552,351.292
	c-0.165-1.193-0.868-2.022-2.301-2.348c-1.342,2.535-2.879,4.788-4.563,6.821C240.996,355.647,243.333,352.661,245.552,351.292
	 M218.15,352.75c0.265-1.802-0.134-5.142-0.253-7.447c-0.812-0.285-0.752,0.699-1.689,0.235
	C216.635,348.092,217.459,350.375,218.15,352.75 M225.813,352.812c1.373-1.631,1.503-3.343,2.362-5.313
	C226.413,348.097,225.789,350.507,225.813,352.812 M238.094,354.557c1.376-0.682,1.852-2.686,2.91-3.84
	c-2.58,1.071-5.056,5.202-7.677,7.335c-0.284,1.494-1.021,2.329-1.916,2.931C233.825,361.042,236.306,356.946,238.094,354.557
	 M215.853,359.172c0.019-4.631-1.352-8.309-1.744-12.658c-1.021-0.368-1.196,0.501-2.217,0.134c0.118,2.249,0.936,4.45,1.509,6.584
	C213.947,355.269,214.039,357.889,215.853,359.172 M234.636,361.312c3.482-2.782,7.377-4.962,10.569-8.166
	C241.512,355.618,237.523,357.658,234.636,361.312 M212.431,359.902c-0.486-4.21-1.302-8.191-2.112-12.178
	c-1.129,0.033-1.989,0.468-2.894,0.83C208.632,352.653,209.849,356.742,212.431,359.902 M327.908,371.062
	c-5.007-1.111-9.518-2.561-14.368-3.78c4.42,2.488,8.507,3.803,13.128,6.017C327.217,372.75,327.539,371.875,327.908,371.062
	 M322.016,373.251c-4.796-2.718-10.734-4.651-15.624-7.305c-0.977,0.036-0.843,1.693-1.287,2.501
	C311.002,369.858,316.363,372.382,322.016,373.251 M249.229,358.008c0.381-0.877-0.085-1.172-0.231-1.688
	c-1.195,1.401-2.714,2.333-3.755,3.958C246.643,359.623,247.626,358.363,249.229,358.008 M237.948,364.123
	c3.609-1.587,6.102-4.801,9.046-7.354C243.893,357.742,240.576,361.329,237.948,364.123 M207.149,360.287
	c0.11-3.076-1.065-7.274-1.876-10.49c-1,0.113-1.734,0.617-2.199,1.507C204.62,354.167,205.819,357.273,207.149,360.287
	 M248.734,360.656c0.251-0.197,0.397-0.543,0.465-1.009c-4.604,1.144-7.371,4.97-11.432,6.907c0.646,2.174,2.146,3.764,2.089,6.419
	c3.725-1.865,7.622-3.477,9.677-7.783c-4.103-0.484-5.598,2.838-8.884,3.546c-0.223-2.286,2.441-3.11,3.802-4.22
	C245.994,363.258,247.318,361.794,248.734,360.656 M305.551,370.448c-0.983,0.024-1.618,0.559-1.938,1.556
	c4.493,1.695,9.878,2.779,14.22,4.574c1.009-0.67-0.404-0.514-0.693-0.676C313.521,373.868,309.06,372.312,305.551,370.448
	 M220.008,357.48c0.627-0.445-0.287-1.793-0.036-2.745C219.105,355.343,220.184,356.578,220.008,357.48 M324.802,375.961
	c-1.823-1.906-6.693-1.725-9.601-2.889c2.584,1.537,5.285,2.999,8.87,3.85C324.201,376.436,324.412,376.069,324.802,375.961
	 M218.338,359.087c0.405-1.04-1.119-2.571-1.161-4.053C216.938,355.896,216.794,358.678,218.338,359.087 M203.361,361.498
	c0.62-3.12-1.627-6.272-2.075-9.433c-0.948,0.189-1.211,1.378-2.2,1.508C200.26,356.389,201.821,358.935,203.361,361.498
	 M247.349,363.686c1.415,0.216,2.733-0.557,2.297-2.039C248.613,361.938,247.994,362.833,247.349,363.686 M210.645,360.666
	c-0.623-1.652-1.65-3.026-2.125-4.781c-0.689,1.477,0.663,3.545,0.65,5.327C209.683,361.061,210.062,360.716,210.645,360.666
	 M321.773,378.96c-5.038-1.696-9.811-2.997-15.591-4.558c3.726,3.067,10.844,3.806,13.043,7.918
	C320.217,381.558,321.674,379.926,321.773,378.96 M314.08,380.536c-3.34-2.327-8.104-3.682-11.487-5.983
	c-0.854,0.328-0.955,1.755-1.771,2.136C304.759,378.724,309.579,378.856,314.08,380.536 M201.014,363.798
	c-0.133-2.603-2.2-5.878-3.332-8.569c-0.596-0.195-0.437,0.709-0.941,0.647C197.872,358.716,199.439,361.259,201.014,363.798
	 M236.375,365.198c0.52-0.256,1.146-0.353,1.309-1.127c-0.611-0.325-1.765,0.983-1.588-0.296
	C234.871,363.928,236.118,364.729,236.375,365.198 M206.125,362.835c0.613-1.107-0.994-2.494-1.209-3.789
	C204.81,359.741,204.934,362.266,206.125,362.835 M197.341,365.854c0.09-2.45-1.829-5.52-2.587-8.157
	c-0.975-0.073-1.051,1.161-1.671,1.607C194.068,361.786,196.156,363.511,197.341,365.854 M317.192,384.407
	c0.416-0.633,1.143-0.806,1.408-1.655c-0.474,0.188-1.115,0.051-0.681,0.694c-3.569-1.005-7.102-2.78-10.658-3.088
	C310.649,381.654,313.213,383.515,317.192,384.407 M309.911,385.237c-3.131-2.163-6.368-4.254-10.743-5.569
	c-0.109,0.625-0.6,0.697-0.56,1.541C302.569,382.422,306.267,383.813,309.911,385.237 M195.043,367.89
	c-1.005-2.546-2.255-4.92-3.58-7.247c-0.406,0.195-0.661,0.611-0.992,0.912C191.486,364.015,193.191,366.002,195.043,367.89
	 M240.258,375.24c2.503,0.06,5.9-1.496,7.558-3.795C244.741,371.903,242.717,373.891,240.258,375.24 M200.204,366.663
	c0.949-1.067-0.972-1.873-1.094-2.945C198.659,364.346,199.316,366.187,200.204,366.663 M313.273,387.787
	c-5.402-1.304-9.145-3.74-14.697-4.94c3.572,2.788,7.99,4.993,11.721,7.67C311.783,390.328,312.386,388.846,313.273,387.787
	 M297.007,383.924c-1.054,0.039-1.234,1.347-1.986,1.822c3.991,1.961,7.515,3.389,11.519,4.344
	C304.229,388.116,300.076,386.074,297.007,383.924 M190.344,368.107c0.588-1.254-1.154-2.901-1.378-4.367
	c-0.729-0.055-0.682,1.025-1.306,1.126C188.294,366.125,189.488,367,190.344,368.107 M194.233,370.753
	c0.33-1.534-1.272-1.746-1.357-2.994C192.487,368.419,193.153,370.333,194.233,370.753 M189.237,372.56
	c-0.708-2.054-1.924-3.76-2.766-5.722c-0.703,0.209-1.061,0.924-1.406,1.655C186.779,369.625,187.073,371.734,189.237,372.56
	 M242.859,380.384c1.16-0.547,3.232,0.226,3.357-1.839C244.85,378.798,243.571,379.185,242.859,380.384 M298.715,389.45
	c2.68,1.394,4.928,3.087,7.033,4.876c1.137-0.027,1.699-0.889,2.25-1.771c-2.655-1.413-6.337-2.123-8.92-3.586
	C298.4,388.832,298.715,389.107,298.715,389.45 M294.045,388.029c-1.204,0.039-1.407,1.54-2.085,2.352
	c3.655,2.045,8.229,4.668,12.385,5.601c-0.945-1.81-3.044-3.425-4.87-4.744C297.758,389.993,295.412,389.604,294.045,388.029
	 M192.034,372.26c-0.041-0.819-1.443-0.703-1.343-1.622c-0.541,0.389,0.262,1.814,0.978,2.101
	C191.684,372.424,191.815,372.279,192.034,372.26 M238.161,384.988c2.756-0.583,5.545-1.117,7.196-3.314
	C242.047,381.449,239.194,381.892,238.161,384.988 M293.122,394.434c-0.402-0.734-2.746-2.743-3.343-1.172
	C291.038,393.551,291.586,394.332,293.122,394.434 M243.888,386.604c0.72-0.674,0.485-1.993,0.975-2.283
	c-1.565-0.368-3.499,1.63-5.526,1.708C239.831,387.138,242.192,385.907,243.888,386.604 M183.315,376.389
	c-0.373-1.516-1.167-2.742-1.691-4.155c-0.79,0.194-1.438,0.595-1.67,1.607C181.222,374.587,182.048,375.639,183.315,376.389
	 M302.506,397.01c-1.7-0.836-3.603-1.532-5.311-2.363c1.106,1.475,2.984,2.419,4.85,3.374
	C302.1,397.539,302.473,397.521,302.506,397.01 M186.69,375.919c-1.054-0.585-1.549-1.552-2.3-2.346
	c-0.667,0.928,0.795,2.372,0.994,3.473C185.901,376.792,186.528,376.694,186.69,375.919 M299.365,399.164
	c-2.73-1.988-7.617-3.699-10.941-4.511c2.307,2.419,5.633,4.146,7.797,6.663C297.361,400.733,298.608,400.309,299.365,399.164
	 M180.504,379.698c0.761-1.526-1.447-3.006-1.904-4.468c-0.701,0.211-1.06,0.926-1.407,1.656
	C178.139,377.932,179.511,378.687,180.504,379.698 M292.249,400.574c0.005-1.621-3.34-2.943-4.652-4.433
	c-0.348,0.055-0.606,0.237-0.679,0.696C288.73,398.062,290.582,399.25,292.249,400.574 M183.353,379.133
	c-0.031-0.752-0.537-1.173-1.394-1.356C182.248,378.35,182.332,379.062,183.353,379.133 M290.382,403.238
	c-1.809-1.229-4.701-6.708-6.755-3.454C285.959,400.883,287.32,402.644,290.382,403.238 M177.363,381.851
	c-0.368-1.443-1.563-4.568-3.097-2.497C174.928,380.44,176.178,381.122,177.363,381.851 M236.992,392.717
	c0.921-0.111,1.626-0.545,2.15-1.242c-0.771-0.112-1.707-0.469-2.169-0.131C236.613,392.051,237.219,392.099,236.992,392.717
	 M180.207,381.287c-0.38-0.049-0.756-0.095-0.742-0.411c-0.768,0.104,0.093,0.977,0.016,1.371
	C179.959,382.271,180.169,381.905,180.207,381.287 M293.395,403.254c-0.154-0.666-0.753-1.024-1.707-1.141
	C291.989,402.678,292.618,403.717,293.395,403.254 M289.771,405.043c-1.692-0.843-3.82-1.387-4.686-2.793
	c-1.257,1.062,1.505,3.248,1.54,4.945C287.723,406.545,288.876,405.985,289.771,405.043 M283.746,405.015
	c-0.43-1.201-2.041-4.816-3.359-2.548C281.591,403.26,282.445,404.293,283.746,405.015 M236.563,396.474
	c2.048-0.271,3.741-1.056,5.098-2.336c-1.886-0.199-3.453,0.497-4.603-0.312C236.664,394.379,236.338,395.496,236.563,396.474
	 M174.104,383.16c-0.336-0.598-0.711-1.937-1.657-1.405C172.895,382.297,173.249,382.899,174.104,383.16 M172.137,386.357
	c-0.504-0.611-0.915-2.15-1.872-1.72C170.466,385.498,171.413,385.852,172.137,386.357 M284.742,408.49
	c-0.534-1.406-1.901-2.238-3.263-3.076C282.418,406.496,283.295,408.48,284.742,408.49 M175.411,386.418
	c-0.616-0.037-0.982-0.248-0.959-0.727c-0.95,0.234,0.431,0.752,0.018,1.375c0.176,0.032,0.354,0.064,0.53,0.098
	C175.18,386.979,175.355,386.787,175.411,386.418 M156.051,384.448c-0.266-0.896-1.479-1.142-1.824-1.987
	C153.629,383.037,155.32,384.015,156.051,384.448 M281.12,410.277c-0.701-2.213-3.302-3.125-4.869-4.745
	c-0.365,0.028-0.504,0.39-0.893,0.382c0.141,2.287,2.014,3.393,1.924,5.84C278.73,411.508,279.608,410.431,281.12,410.277
	 M236.351,400.545c1.074-0.568,2.616-0.453,3.094-1.888c-1.054,0.2-2.091,0.281-2.65-0.495
	C236.724,399.42,236.136,399.693,236.351,400.545 M158.022,385.638c-0.884-0.165-0.745-1.03-1.708-1.14
	C156.404,385.03,157.925,386.594,158.022,385.638 M170.069,390.082c-0.142-1.215-1.029-1.914-1.359-2.996
	c-0.558,0.084-0.837,0.574-1.04,1.176C168.385,388.926,169.029,389.638,170.069,390.082 M274.665,409.621
	c0.632-0.599-0.546-1.928-0.879-2.63c-0.34,0.513-1.215,0.248-1.307,1.126C273.195,408.625,274.045,409.043,274.665,409.621
	 M153.998,385.16c-0.299-0.1-0.482-0.031-0.578,0.165c0.264,2.61,3.298,3.943,5.298,5.376c2.185,1.563,4.796,2.809,6.87,4.299
	c-0.392-1.457-2.231-2.574-3.691-3.705C159.384,389.346,156.622,387.391,153.998,385.16 M236.504,404.135
	c0.488,0.471,1.736-0.209,2.101-0.978C237.404,402.756,236.562,402.873,236.504,404.135 M167.076,391.438
	c1.063-0.378-0.838-0.63-0.283-1.422C165.297,390.017,166.893,391.135,167.076,391.438 M272.235,413.823
	c-0.614-1.512-1.532-4.725-3.377-3.917C269.166,411.773,270.145,413.181,272.235,413.823 M275.494,412.517
	c-0.65-1.017-2.097-1.488-3.145-2.231c0.329,1.004,1.291,1.576,1.407,2.729C274.359,412.881,275.011,412.822,275.494,412.517
	 M153.572,388.916c-1.016-0.355-0.586,1.397-0.929,2.02c4.925,1.786,7.405,5.24,11.773,7.406
	C161.281,394.871,157.241,392.021,153.572,388.916 M238.193,408.287c0.778-1.336,2.546-1.225,3.24-2.683
	c-2.089-0.317-2.631,0.442-4.383,0.005C237.308,406.586,236.986,407.961,238.193,408.287 M269.34,414.654
	c-0.233-0.607-0.172-1.421-1.075-1.572c-0.345,0.776,0.31,0.865-0.033,1.64C268.699,414.844,268.851,414.504,269.34,414.654
	 M262.853,415.635c0.988-0.691-0.246-1.819,0.281-2.961c-0.763-0.217-0.928,0.444-1.688,0.233
	C261.391,414.174,262.743,414.479,262.853,415.635 M265.865,415.649c0.274-1.112-0.521-1.49-0.663-2.315
	c-0.899,0.338,0.071,1.315-0.395,2.117C265.161,415.518,265.513,415.582,265.865,415.649 M161.108,399.916
	c-1.921-2.148-5.588-5.1-8.495-7.341c-0.132,0.704-0.263,1.41-0.395,2.116C155.178,396.435,158.113,398.195,161.108,399.916
	 M180.239,400.201c1.03,0.047,1.454-0.795,1.933-1.556c-1.962-0.802-4.062-0.052-5.972-0.295c-1.401-0.179-3.255-1.827-4.339-0.263
	C174.386,398.398,178.379,398.926,180.239,400.201 M164.498,396.438c3.742,2.821,7.305,5.771,10.679,8.847
	c0.706-0.096,1.009-0.771,1.57-1.078c-3.749-2.894-7.755-5.613-11.884-8.248C164.188,395.819,164.501,396.094,164.498,396.438
	 M261.332,416.447c-0.228-0.997-0.903-2.662-2.037-2.298c-0.196,1.058,0.231,1.688,0.035,2.744
	C260.088,416.877,260.561,416.441,261.332,416.447 M257.375,417.08c0.25-1.246-0.552-1.779-0.249-3.063
	c-1.384,0.006-2.291,1.719-1.967,3.195C256.115,417.481,256.687,417.192,257.375,417.08 M241.323,413.53
	c1.161,0.009,1.646-0.97,2.464-1.457c-0.801-0.931-2.14,0.231-2.843,0.564C240.972,413.004,241.33,413.142,241.323,413.53
	 M253.258,417.129c0.355-1.397-0.063-2.266-0.198-3.323c-1.118,0.618-1.628,2.122-2.285,3.411
	C251.759,417.414,252.5,417.263,253.258,417.129 M246.059,416.062c0.115-0.618,0.229-1.236,0.346-1.854
	c-0.935,0.205-1.91,0.355-2.415,1.192C245.026,415.381,245.194,415.959,246.059,416.062 M164.423,407.111
	c-3.688-3.479-7.862-6.621-11.542-10.105c-0.867,0.463,0.082,1.625-0.495,2.65C157.004,401.728,160.06,404.866,164.423,407.111
	 M171.191,407.553c-4.509-1.992-7.501-5.02-11.821-7.141c-0.68,0.26,1.309,1.383,2.088,2.035c2.567,2.157,5.667,5.121,8.227,7.293
	c1.643-0.747,2.896-2.068,4.398-3.016c-3.19-2.66-7.152-4.795-10.709-7.206c2.477,2.306,4.905,4.641,8.428,6.231
	C171.667,406.453,171.62,407.28,171.191,407.553 M161.659,410.158c-2.856-2.968-5.769-5.896-9.405-8.333
	c-0.309,1.75-1.003,3.767,0.27,4.433c1.052,0.414,0.735-1.174,1.787-0.76C156.925,406.94,158.825,408.866,161.659,410.158
	 M168.065,411.08c-2.924-1.613-5.263-3.627-8.358-5.125c2.172,2.207,4.578,4.254,6.737,6.469
	C167.058,412.082,167.809,411.941,168.065,411.08 M151.601,408.279c-0.401,1.658,0.213,2.625-0.266,4.335
	c1.945-0.399,2.651,1.608,4.571,1.95c-0.413-1.411-1.978-2.033-2.683-3.242c1.076-2.451,2.855,0.391,4.501,0.842
	C156.888,410.195,153.534,408.726,151.601,408.279 M160.088,411.235c1.246,1.149,2.289,2.435,3.743,3.438
	c0.2-0.608,1.012-0.321,1.04-1.174C163.056,412.899,161.669,412,160.088,411.235 M161.367,416.131
	c-0.535-0.557-1.299-0.955-2.234-1.237C159.946,415.424,160.387,417.027,161.367,416.131 M158.588,417.806
	c-0.42-0.329-1.306-0.339-1.489-0.827c-0.908,0.342,0.727,0.865,0.232,1.688C158.01,418.762,158.429,418.474,158.588,417.806
	 M156.125,419.265c-1.407-0.269-1.823-1.218-2.981-1.653c-0.104,0.994,0.985,1.171,0.35,2.529
	C154.424,419.928,155.874,420.473,156.125,419.265"/>
</svg>
