<?xml version="1.0" standalone="no"?><!DOCTYPE svg PUBLIC "-//W3C//DTD SVG 1.1//EN" "http://www.w3.org/Graphics/SVG/1.1/DTD/svg11.dtd"><svg t="1545801635251" class="icon" style="" viewBox="0 0 1024 1024" version="1.1" xmlns="http://www.w3.org/2000/svg" p-id="1713" xmlns:xlink="http://www.w3.org/1999/xlink" width="200" height="200"><defs><style type="text/css"></style></defs><path d="M983.474945 93.527694a43.364482 43.364482 0 0 0-48.132985 37.967402l-8.604981 72.965329H460.716912l13.66971-57.930093a43.350032 43.350032 0 0 0-84.388061-19.912114L265.049319 656.160531a158.422691 158.422691 0 0 0-100.398673-35.771002C76.881281 620.389529 5.476554 691.794257 5.476554 779.563621s71.404727 159.174092 159.174092 159.174092c85.869188 0 156.031214-68.355775 159.029591-153.516913l71.831003-304.418373h498.61929L874.586891 646.421223a158.213166 158.213166 0 0 0-87.090214-26.038919c-87.769364 0-159.174092 71.404727-159.174092 159.174092s71.404727 159.174092 159.174092 159.174092c87.762139 0 159.166867-71.404727 159.166866-159.174092 0-1.119876-0.065025-2.232527-0.0867-3.352402l74.865505-634.557765a43.335582 43.335582 0 0 0-37.967403-48.118535zM164.650646 852.044874c-39.961504 0-72.474028-32.512524-72.474028-72.474028s32.512524-72.474028 72.474028-72.474028 72.474028 32.512524 72.474028 72.474028-32.519749 72.474028-72.474028 72.474028z m251.314584-457.935285l24.434968-103.563226c2.275877 0.368475 4.587878 0.6069 6.964905 0.6069h469.141268l-12.145234 102.956326H415.96523z m371.531447 457.935285c-39.961504 0-72.474028-32.512524-72.474028-72.474028s32.512524-72.474028 72.474028-72.474028c37.779553 0 68.86875 29.080646 72.141678 66.036548l-0.15895 1.358301a43.133282 43.133282 0 0 0 0.180625 11.184308c-3.121202 37.107627-34.2682 66.368899-72.163353 66.368899z" fill="#231815" p-id="1714"></path></svg>