<?xml version="1.0" standalone="no"?><!DOCTYPE svg PUBLIC "-//W3C//DTD SVG 1.1//EN" "http://www.w3.org/Graphics/SVG/1.1/DTD/svg11.dtd"><svg t="1545802636081" class="icon" style="" viewBox="0 0 1024 1024" version="1.1" xmlns="http://www.w3.org/2000/svg" p-id="3133" xmlns:xlink="http://www.w3.org/1999/xlink" width="200" height="200"><defs><style type="text/css"></style></defs><path d="M514.77781263 44.39214502C257.88007204 44.39214502 49.64214502 252.62915381 49.64214502 509.52781263S257.87915381 974.69285645 514.77781263 974.69285645 979.94285644 766.42463406 979.94285644 509.52781263 771.67463405 44.39214502 514.77781263 44.39214502z m0 876.11164564C287.79936175 920.50379066 103.80183368 736.50534436 103.80183368 509.52781263S287.80027998 98.55183369 514.77781263 98.55183369 925.75379065 282.55027999 925.75379065 509.52781263 741.75534435 920.50379066 514.77781263 920.50379066z" fill="#b79268" p-id="3134"></path><path d="M785.51658616 457.57688707L542.9978419 722.77722785a38.16497303 38.16497303 0 0 1-28.66894303 12.97166523 38.16497303 38.16497303 0 0 1-28.66802388-12.97166524L243.14212982 457.57688707c-11.84066174-12.50531051-15.49898375-30.7308223-9.37944153-46.82835743s20.88686066-27.33780902 38.04746633-28.86723523H756.64935092c17.22762131 1.46332881 32.06103807 12.63750531 38.18057938 28.80113783 6.18563962 16.16363252 2.5273176 34.32304692-9.31242591 46.89445482z" fill="#b79268" p-id="3135"></path></svg>