<?xml version="1.0" standalone="no"?><!DOCTYPE svg PUBLIC "-//W3C//DTD SVG 1.1//EN" "http://www.w3.org/Graphics/SVG/1.1/DTD/svg11.dtd"><svg t="1545803922534" class="icon" style="" viewBox="0 0 1024 1024" version="1.1" xmlns="http://www.w3.org/2000/svg" p-id="6083" xmlns:xlink="http://www.w3.org/1999/xlink" width="200" height="200"><defs><style type="text/css"></style></defs><path d="M914.432 476.586667l77.568-75.861334a106.24 106.24 0 0 0 0-151.637333L770.218667 32.085333a111.957333 111.957333 0 0 0-154.965334 0l-77.482666 75.861334 376.661333 368.64z m-320-232.106667l179.882667 176.042667 98.389333 96.256-383.488 375.296c-90.965333 19.114667-110.506667-24.405333-98.389333-96.256-92.330667-12.544-161.024-52.821333-177.237334-155.648l258.816-245.333334-23.552-23.04-265.557333 251.818667c-66.730667 5.290667-80.896-36.864-70.826667-100.181333l383.488-375.296 98.389334 96.341333zM47.104 750.250667l-46.506667 199.168 75.434667 73.898666 203.52-45.482666L47.189333 750.250667z" fill="#00BBFD" p-id="6084"></path></svg>