<?xml version="1.0" standalone="no"?><!DOCTYPE svg PUBLIC "-//W3C//DTD SVG 1.1//EN" "http://www.w3.org/Graphics/SVG/1.1/DTD/svg11.dtd"><svg t="1545803834643" class="icon" style="" viewBox="0 0 1024 1024" version="1.1" xmlns="http://www.w3.org/2000/svg" p-id="5204" xmlns:xlink="http://www.w3.org/1999/xlink" width="200" height="200"><defs><style type="text/css"></style></defs><path d="M929.792 746.496l-99.328-382.976c-12.288-49.152-66.56-73.728-111.616-52.224l-150.528 72.704c-9.216 4.096-18.432 7.168-27.648 9.216 7.168-45.056 27.648-64.512 48.128-80.896l8.192-6.144c34.816-25.6 74.752-55.296 82.944-139.264 1.024-14.336-8.192-26.624-22.528-27.648-13.312-1.024-26.624 8.192-27.648 22.528-6.144 61.44-31.744 79.872-63.488 104.448l-9.216 7.168c-29.696 22.528-61.44 55.296-68.608 121.856-11.264-2.048-21.504-5.12-31.744-10.24l-150.528-72.704c-45.056-21.504-99.328 3.072-111.616 52.224L94.208 746.496c-11.264 45.056 6.144 92.16 45.056 117.76 38.912 26.624 91.136 24.576 128-4.096L399.36 757.76c66.56-51.2 158.72-51.2 225.28 0l132.096 102.4c36.864 28.672 89.088 30.72 128 4.096 37.888-25.6 56.32-72.704 45.056-117.76zM450.56 560.128c0 13.312-11.264 23.552-24.576 23.552h-51.2v51.2c0 13.312-10.24 24.576-23.552 24.576h-1.024c-13.312 0-24.576-11.264-24.576-24.576v-51.2h-50.176c-13.312 0-25.6-10.24-25.6-23.552v-1.024c0-13.312 12.288-24.576 25.6-24.576h50.176v-50.176c0-13.312 11.264-25.6 24.576-25.6h1.024c13.312 0 23.552 12.288 23.552 25.6v50.176h51.2c13.312 0 24.576 11.264 24.576 25.6z m221.184 101.376c-55.296 0-100.352-45.056-100.352-100.352s45.056-100.352 100.352-100.352 100.352 45.056 100.352 100.352-45.056 100.352-100.352 100.352z" fill="#2F8AF5" p-id="5205"></path></svg>