<?xml version="1.0" standalone="no"?><!DOCTYPE svg PUBLIC "-//W3C//DTD SVG 1.1//EN" "http://www.w3.org/Graphics/SVG/1.1/DTD/svg11.dtd"><svg t="1545817032009" class="icon" style="" viewBox="0 0 1024 1024" version="1.1" xmlns="http://www.w3.org/2000/svg" p-id="11522" xmlns:xlink="http://www.w3.org/1999/xlink" width="200" height="200"><defs><style type="text/css"></style></defs><path d="M512.632 591.838c-58.959 0-114.024-26.328-151.108-72.198-5.378-6.665-4.332-16.452 2.318-21.814 6.695-5.423 16.42-4.362 21.829 2.303 31.146 38.569 77.425 60.686 126.96 60.686 49.84 0 96.3-22.36 127.477-61.322 5.377-6.665 15.134-7.726 21.813-2.423 6.681 5.363 7.772 15.118 2.424 21.814-37.114 46.353-92.407 72.954-151.713 72.954z" fill="#1296db" p-id="11523"></path><path d="M753.242 188.92a990.12 990.12 0 0 1 27.434 98.275c28.294 126.13-101.471 344.523-238.268 357.525-136.938 13.016-265.883-24.795-265.883-24.795l7.238 35.774 155.963 72.812 157.707-1.293 119.36-56.68 93.637-128.31 35.198-151.108s-64.956-186.147-92.386-202.2z" fill="#1296db" p-id="11524"></path><path d="M512.268 749.354c-189.252 0-343.207-153.97-343.207-343.223S323.016 62.924 512.268 62.924 855.476 216.879 855.476 406.13 701.52 749.354 512.268 749.354z m0-655.406c-172.133 0-312.183 140.049-312.183 312.183S340.134 718.33 512.268 718.33s312.184-140.064 312.184-312.198S684.402 93.948 512.268 93.948z" fill="#1296db" p-id="11525"></path><path d="M725.41 817.705s3.23-52.354-16.58-43.868c-44.844 62.703-94.364 101.824-178.474 110.312-148.732 15.009-240.743-35.905-240.743-35.905l-15.256 64.62-6.377 29.413h496.346v-71.572l-38.917-53z" fill="#1296db" p-id="11526"></path><path d="M764.326 957.8H267.982c-4.12 0-8.075-1.636-10.984-4.545s-4.53-6.878-4.53-10.998c0.168-100.284 50.325-193.993 130.9-244.56 7.211-4.575 16.816-2.363 21.375 4.908 4.56 7.241 2.363 16.816-4.893 21.39-67.472 42.326-110.948 119.038-115.888 202.78h464.381c-4.984-85.135-49.566-162.545-118.795-204.567-7.317-4.454-9.65-13.998-5.196-21.33 4.454-7.271 13.937-9.635 21.314-5.211 82.59 50.172 134.005 144.67 134.172 246.59 0 4.12-1.62 8.089-4.53 10.997s-6.862 4.546-10.982 4.546z" fill="#1296db" p-id="11527"></path></svg>