<?xml version="1.0" encoding="utf-8"?>
<!-- Generator: Adobe Illustrator 16.0.0, SVG Export Plug-In . SVG Version: 6.00 Build 0)  -->
<!DOCTYPE svg PUBLIC "-//W3C//DTD SVG 1.1//EN" "http://www.w3.org/Graphics/SVG/1.1/DTD/svg11.dtd">
<svg version="1.1" id="图层_1" xmlns="http://www.w3.org/2000/svg" xmlns:xlink="http://www.w3.org/1999/xlink" x="0px" y="0px"
	 width="480px" height="762px" viewBox="0 0 480 762" enable-background="new 0 0 480 762" xml:space="preserve">
<g>
	<g>
		<path fill="#F9C7AF" d="M109.615,393.002c0,0,41.28,5.276,52.295,5.276c0,0,11.015-29.018,23.326-47.483
			c12.31-18.465,24.181-52.318,22.422-69.025c-1.759-16.707-7.858-25.445-3.078-28.578c12.75-8.354,48.802,7.475,43.966,37.811
			c-4.837,30.337-15.202,43.526-7.602,54.078c7.602,10.552,30.903,21.104,52.886,19.784s66.388,30.776,42.646,65.948
			c-23.741,35.173-32.331,66.828-42.883,72.104c-10.552,5.276-110.117-6.595-121.548-45.724c0,0-66.388,13.189-70.345,14.508
			C97.745,473.02,109.615,393.002,109.615,393.002z"/>
		<path fill="#D89679" d="M186.555,428.614c0,0,49.242,3.078,61.992-47.043C248.547,381.571,254.262,430.813,186.555,428.614z"/>
		<path fill="#D89679" d="M234.038,452.355c0,0-0.171-19.805-11.956-26.39C222.082,425.966,231.84,445.321,234.038,452.355z"/>
		<path fill="#EFAB8F" d="M203.914,263.361c0,0,12.217,7.856,17.213,9.615c4.997,1.759,6.435,14.068,0,15.827
			c-6.435,1.759-13.469-7.034-13.469-7.034S204.957,268.395,203.914,263.361z"/>
	</g>
	<g>
		<path fill="#F9C7AF" d="M283.154,381.798c0.384-7.73,1.216-23.901,37.27-23.091c36.055,0.81,49.423,5.671,48.612,23.091
			c-0.81,17.419-9.317,23.495-40.915,22.28S282.469,395.623,283.154,381.798z"/>
		<path fill="#F9C7AF" d="M280.319,420.688c0.386-14.668,13.254-20.032,55.847-18.727c42.593,1.307,45.834,10.22,45.429,25.208
			c-0.405,14.989-18.229,22.686-53.068,18.635S279.914,436.081,280.319,420.688z"/>
		<path fill="#F9C7AF" d="M272.622,451.476c3.093-10.686,23.496-12.964,56.31-7.697c32.813,5.267,35.243,12.153,34.028,27.142
			c-1.216,14.989-30.788,14.179-52.259,9.317C289.231,475.376,268.166,466.869,272.622,451.476z"/>
		<path fill="#F9C7AF" d="M254.797,481.453c3.688-11.065,19.315-11.44,55.095-4.456c24.902,4.861,24.767,15.394,22.325,24.711
			c-2.44,9.317-30.444,15.394-51.906,8.912S251.151,492.391,254.797,481.453z"/>
		<path fill="#D89679" d="M287.464,368.118l-0.925,6.253c-0.263,2.002-0.461,3.944-0.516,5.842l-0.012,1.415l0.061,1.396
			c0.08,0.923,0.215,1.831,0.43,2.718c0.224,0.883,0.508,1.743,0.87,2.574l0.608,1.218l0.716,1.168
			c0.552,0.735,1.111,1.472,1.773,2.143c0.3,0.362,0.673,0.66,1.025,0.979c0.357,0.314,0.692,0.659,1.093,0.936l1.158,0.886
			l1.248,0.789c0.818,0.554,1.747,0.95,2.61,1.472c0.913,0.429,1.831,0.87,2.774,1.267c0.958,0.357,1.897,0.799,2.878,1.134
			l2.958,1.022c1.004,0.296,2.006,0.626,3.017,0.969v0.002l-0.006-0.001c-2.89,0.579-5.706,1.172-8.446,1.949
			c-2.739,0.74-5.394,1.675-7.866,2.793c-2.468,1.13-4.728,2.535-6.505,4.258c-1.747,1.749-2.974,3.798-3.476,6.151l-0.164,0.794
			l-0.12,1.078c-0.045,0.692-0.079,1.102-0.037,1.746c0.041,1.21,0.277,2.403,0.67,3.568c0.768,2.337,2.229,4.537,4.047,6.518
			c0.9,1.002,1.911,1.932,2.959,2.842c1.051,0.91,2.187,1.733,3.337,2.563c1.149,0.836,2.367,1.577,3.589,2.344
			c1.232,0.746,2.49,1.468,3.788,2.154H301h-0.001c-2.542,0.598-5.036,1.082-7.489,1.687c-2.453,0.573-4.868,1.186-7.195,1.903
			c-2.318,0.727-4.577,1.558-6.535,2.634c-0.976,0.536-1.873,1.139-2.625,1.791c-0.733,0.671-1.305,1.388-1.681,2.147
			c-0.112,0.185-0.179,0.386-0.241,0.586l-0.108,0.298l-0.008,0.019c0.066-0.29,0.017-0.072,0.031-0.133l-0.003,0.015l-0.013,0.059
			l-0.023,0.116l-0.048,0.233c-0.178,0.761-0.15,0.88-0.184,1.376c-0.017,0.924,0.133,1.904,0.449,2.903
			c0.662,1.996,1.857,4.024,3.3,5.932c2.886,3.862,6.572,7.344,10.357,10.853h0.001v0.001c-3.5-0.031-6.905-0.014-10.256,0.138
			c-3.342,0.167-6.631,0.468-9.732,1.145c-0.769,0.182-1.54,0.355-2.276,0.588c-0.751,0.202-1.458,0.489-2.167,0.75
			c-0.697,0.284-1.371,0.596-2.007,0.955c-0.63,0.361-1.253,0.727-1.834,1.133c-0.605,0.385-1.151,0.829-1.719,1.278
			c-0.258,0.246-0.567,0.459-0.833,0.713c-0.251,0.266-0.534,0.518-0.816,0.781c-0.512,0.563-1.071,1.14-1.604,1.795
			c-0.573,0.64-1.037,1.365-1.698,2.105c-0.22-0.913-0.403-1.889-0.307-2.832c-0.016-0.981,0.253-1.912,0.525-2.868
			c0.355-0.916,0.775-1.837,1.368-2.65c0.259-0.441,0.606-0.799,0.938-1.18c0.321-0.395,0.686-0.74,1.074-1.054
			c0.738-0.688,1.592-1.206,2.441-1.697c0.865-0.47,1.751-0.86,2.647-1.206c0.898-0.32,1.811-0.603,2.722-0.809
			c0.909-0.244,1.828-0.373,2.74-0.503c1.825-0.258,3.643-0.298,5.437-0.241c1.793,0.063,3.566,0.244,5.31,0.547
			c1.744,0.289,3.458,0.713,5.139,1.219c1.681,0.502,3.332,1.115,4.908,1.893v0.001l-0.001-0.001
			c-1.234-0.415-2.424-0.941-3.592-1.513c-1.18-0.556-2.297-1.22-3.426-1.886c-1.123-0.676-2.189-1.439-3.251-2.232
			c-1.063-0.792-2.071-1.669-3.045-2.607c-1.918-1.895-3.698-4.098-4.862-6.863c-0.571-1.382-0.958-2.929-0.99-4.549
			c-0.034-0.771,0.086-1.932,0.193-2.41l0.044-0.234l0.022-0.116l0.012-0.06l0.039-0.177l0.012-0.038l0.193-0.607
			c0.126-0.407,0.268-0.807,0.465-1.181c0.708-1.542,1.787-2.829,2.964-3.833c1.176-1.013,2.461-1.751,3.746-2.37
			c2.587-1.222,5.238-1.877,7.871-2.279c2.635-0.405,5.265-0.526,7.874-0.441c2.608,0.123,5.202,0.346,7.746,0.979H301l0,0
			c-2.917-0.412-5.752-1.313-8.503-2.466c-1.38-0.576-2.705-1.284-4.016-2.046c-1.313-0.762-2.574-1.639-3.763-2.642
			c-2.362-1.997-4.51-4.516-5.772-7.621c-0.638-1.534-1.078-3.192-1.192-4.876c-0.095-0.794-0.065-1.84-0.033-2.589l0.103-1.08
			c0.073-0.601,0.156-0.882,0.237-1.339c0.346-1.652,0.93-3.302,1.832-4.761c0.87-1.473,1.974-2.79,3.215-3.892
			c2.5-2.196,5.413-3.613,8.349-4.529c2.938-0.947,5.949-1.351,8.921-1.523c2.979-0.105,5.949-0.005,8.849,0.605l0.006-0.001v0.002
			c-2.119,0.017-4.252-0.073-6.374-0.362c-1.063-0.135-2.117-0.351-3.18-0.547c-1.05-0.247-2.095-0.549-3.146-0.846
			c-1.026-0.382-2.089-0.686-3.077-1.201l-1.51-0.721l-1.458-0.857c-0.495-0.271-0.958-0.61-1.414-0.957s-0.929-0.672-1.344-1.082
			c-0.42-0.398-0.872-0.767-1.266-1.2l-1.152-1.332l-1.02-1.454c-0.313-0.502-0.58-1.036-0.867-1.557
			c-0.515-1.073-0.943-2.186-1.256-3.332c-0.295-1.148-0.482-2.313-0.595-3.479c-0.077-1.164-0.08-2.329,0.051-3.471
			c0.13-1.14,0.342-2.264,0.669-3.343c0.298-1.089,0.731-2.127,1.206-3.133c0.504-0.995,1.039-1.964,1.717-2.85
			C285.867,369.684,286.594,368.834,287.464,368.118z"/>
		<path fill="#D89679" d="M293.595,475.326c0,0,20.438,4.573,30.677,6.296C324.271,481.622,300.394,481.15,293.595,475.326z"/>
		<path fill="#D89679" d="M303.291,441.113c0,0,25.767,0.442,35.632,4.523C338.923,445.637,310.553,442.841,303.291,441.113z"/>
		<path fill="#D89679" d="M311.197,401.771c0,0,27.841-1.943,37.771,0.908C348.969,402.68,317.133,403.507,311.197,401.771z"/>
		<path fill="#EFAB8F" d="M295.701,390.921c-2.026-3.074-4.097-5.622-5.02-9.283c-1.106-4.387,0.739-8.59,3.291-12.037
			c0.479-0.648-0.516-1.29-1.058-0.815c-6.813,5.959-6.248,18.362,1.912,23.01C295.363,392.101,296.065,391.473,295.701,390.921z"/>
		<path fill="#EFAB8F" d="M294.517,413.647c0.521-0.277,0.138-0.979-0.376-0.892c-9.492,1.606-11.311,15.013-2.782,19.404
			c0.467,0.24,1.038-0.256,0.743-0.742c-1.817-2.991-3.818-5.43-4.013-9.091C287.865,418.091,291.153,415.438,294.517,413.647z"/>
		<path fill="#EFAB8F" d="M286.159,448.563c-6.643,1.311-8.726,9.151-4.559,14.265c0.274,0.336,0.907,0.067,0.868-0.359
			c-0.208-2.292-0.92-4.472-0.788-6.795c0.168-2.956,2.602-4.651,5.051-5.754C287.542,449.554,286.935,448.41,286.159,448.563z"/>
		<path fill="#EFAB8F" d="M271.408,477.643c-9.841-0.859-16.317,13.527-9.089,20.294c0.367,0.344,0.843-0.086,0.658-0.508
			c-3.346-7.653-0.239-16.776,8.604-18.504C272.352,478.774,272.096,477.703,271.408,477.643z"/>
	</g>
</g>
</svg>
