<?xml version="1.0" standalone="no"?><!DOCTYPE svg PUBLIC "-//W3C//DTD SVG 1.1//EN" "http://www.w3.org/Graphics/SVG/1.1/DTD/svg11.dtd"><svg t="1546060422790" class="icon" style="" viewBox="0 0 1024 1024" version="1.1" xmlns="http://www.w3.org/2000/svg" p-id="1908" xmlns:xlink="http://www.w3.org/1999/xlink" width="200" height="200"><defs><style type="text/css"></style></defs><path d="M866.1 318.3v-0.5c0-0.4 0-0.8-0.1-1.1 0-0.5 0-0.9-0.1-1.3 0-0.3-0.1-0.7-0.1-1 0-0.4-0.1-0.8-0.1-1.2 0-0.3 0-0.5-0.1-0.8-0.1-0.6-0.1-1.2-0.2-1.7 0-0.3-0.1-0.7-0.1-1v-0.3c-0.1-1-0.3-2.1-0.4-3.1v-0.1c0-0.2-0.1-0.3-0.1-0.5-0.1-0.9-0.3-1.8-0.5-2.6 0-0.2-0.1-0.3-0.1-0.5-0.1-0.4-0.2-0.8-0.3-1.3l-0.3-1.5c-0.1-0.3-0.1-0.6-0.2-0.9-0.1-0.5-0.2-0.9-0.3-1.4-0.1-0.4-0.2-0.7-0.2-1.1-0.1-0.4-0.2-0.8-0.3-1.3-0.1-0.5-0.2-0.9-0.4-1.4-0.1-0.2-0.1-0.5-0.2-0.7-0.2-0.6-0.4-1.2-0.5-1.8l-0.3-1.2c0-0.1-0.1-0.2-0.1-0.3-0.3-1.1-0.7-2.2-1-3.2 0-0.1-0.1-0.2-0.1-0.3-0.3-1-0.7-1.9-1-2.9-0.1-0.2-0.1-0.3-0.2-0.5-0.1-0.4-0.3-0.7-0.4-1.1l-0.6-1.5c-0.1-0.3-0.3-0.7-0.4-1-0.2-0.4-0.3-0.8-0.5-1.2-0.1-0.3-0.2-0.6-0.4-0.9-0.2-0.6-0.5-1.2-0.7-1.7-0.1-0.3-0.3-0.6-0.4-0.9 0-0.1-0.1-0.2-0.1-0.3-0.4-1-0.9-2-1.4-3 0 0 0-0.1-0.1-0.1-0.1-0.3-0.3-0.6-0.4-0.9-0.4-0.8-0.7-1.5-1.1-2.3-0.1-0.1-0.1-0.2-0.2-0.4-0.3-0.6-0.6-1.3-1-1.9-0.3-0.5-0.5-1-0.8-1.5 0-0.1-0.1-0.2-0.2-0.3l-2.7-4.8c-0.1-0.1-0.1-0.3-0.2-0.4-0.2-0.4-0.5-0.8-0.7-1.2-0.4-0.7-0.8-1.3-1.2-2-0.4-0.6-0.7-1.1-1.1-1.7-0.4-0.6-0.8-1.3-1.2-1.9-0.1-0.2-0.3-0.4-0.4-0.6-0.1-0.2-0.3-0.4-0.4-0.6-1.2-1.7-2.3-3.4-3.6-5.1-0.9-1.2-1.7-2.3-2.6-3.5 0-0.1-0.1-0.1-0.1-0.2-0.7-0.8-1.3-1.7-2-2.5-0.1-0.2-0.3-0.3-0.4-0.5-0.8-1-1.6-1.9-2.4-2.8l-0.1-0.1c-0.2-0.3-0.5-0.6-0.8-0.8-0.5-0.6-1-1.2-1.6-1.7l-0.3-0.3c-0.4-0.4-0.7-0.8-1.1-1.1l-1.2-1.2c-0.1-0.2-0.3-0.3-0.4-0.4l-1.2-1.2-1-1c-0.2-0.2-0.4-0.4-0.6-0.5-0.4-0.4-0.9-0.8-1.3-1.2-0.3-0.3-0.6-0.6-0.9-0.8-0.2-0.2-0.5-0.4-0.7-0.6-0.4-0.4-0.9-0.8-1.3-1.1-0.3-0.2-0.5-0.5-0.8-0.7-0.3-0.2-0.6-0.5-0.9-0.7-0.4-0.3-0.8-0.7-1.3-1-0.2-0.2-0.4-0.4-0.7-0.5-0.4-0.3-0.7-0.5-1.1-0.8l-1.2-0.9c-0.2-0.1-0.3-0.2-0.5-0.4-0.5-0.4-1-0.7-1.5-1-0.3-0.2-0.7-0.5-1-0.7-0.1-0.1-0.2-0.1-0.3-0.2l-2.7-1.8c-0.1 0-0.1-0.1-0.2-0.1l-2.4-1.5c-0.2-0.1-0.4-0.2-0.6-0.4L543.3 62.6c-0.7-0.4-1.3-0.8-2-1.1-0.3-0.1-0.5-0.3-0.8-0.4-0.3-0.2-0.7-0.4-1-0.5-0.3-0.1-0.5-0.3-0.8-0.4-0.4-0.2-0.8-0.4-1.3-0.6-0.3-0.1-0.6-0.3-0.9-0.4-0.1-0.1-0.2-0.1-0.4-0.2-0.8-0.4-1.7-0.7-2.5-1.1-0.8-0.3-1.7-0.7-2.5-1-0.1 0-0.2-0.1-0.3-0.1l-0.9-0.3c-0.4-0.1-0.9-0.3-1.3-0.4-0.2-0.1-0.4-0.1-0.6-0.2-0.4-0.1-0.7-0.2-1.1-0.3-0.3-0.1-0.6-0.2-0.9-0.2-0.3-0.1-0.6-0.1-0.9-0.2-0.4-0.1-0.7-0.2-1.1-0.2-0.2 0-0.4-0.1-0.6-0.1-0.3-0.1-0.7-0.1-1-0.2-0.4-0.1-0.9-0.1-1.3-0.2-0.1 0-0.3-0.1-0.4-0.1-0.3 0-0.7-0.1-1-0.1-0.5 0-0.9-0.1-1.4-0.1H517c-0.5 0-1.1 0-1.6-0.1h-1.1c-0.7 0-1.3 0-2 0.1h-0.6c-0.3 0-0.5 0.1-0.8 0.1-0.2 0-0.4 0-0.6 0.1-0.7 0.1-1.5 0.2-2.2 0.4h-0.1c-0.2 0-0.4 0.1-0.6 0.1-0.6 0.1-1.2 0.3-1.8 0.4-0.3 0.1-0.6 0.2-0.8 0.3-0.4 0.1-0.7 0.2-1.1 0.4-0.1 0-0.2 0.1-0.3 0.1-0.6 0.2-1.1 0.4-1.7 0.7-0.3 0.1-0.5 0.2-0.8 0.3-0.8 0.4-1.6 0.8-2.3 1.2L170.3 248.4c0.8-0.4 1.5-0.8 2.3-1.2 0.3-0.1 0.5-0.2 0.8-0.3 0.5-0.2 1.1-0.5 1.7-0.7 0.5-0.2 0.9-0.3 1.4-0.5 0.3-0.1 0.6-0.2 0.8-0.3 0.6-0.2 1.2-0.3 1.8-0.4 0.2 0 0.4-0.1 0.6-0.1 0.7-0.2 1.5-0.3 2.3-0.4 0.2 0 0.4 0 0.6-0.1 0.5-0.1 0.9-0.1 1.4-0.1 0.7 0 1.3-0.1 2-0.1h1.1c0.5 0 1.1 0 1.6 0.1 0.4 0 0.9 0 1.3 0.1 0.4 0 0.9 0.1 1.4 0.1 0.5 0.1 1 0.1 1.5 0.2 0.4 0.1 0.8 0.1 1.3 0.2s1.1 0.2 1.6 0.3c0.4 0.1 0.7 0.2 1.1 0.2 0.6 0.1 1.2 0.3 1.7 0.4 0.4 0.1 0.7 0.2 1.1 0.3 0.6 0.2 1.3 0.4 1.9 0.6l0.9 0.3c0.9 0.3 1.9 0.7 2.9 1.1 0.9 0.4 1.9 0.8 2.9 1.2 0.3 0.1 0.6 0.3 0.9 0.4 0.7 0.3 1.4 0.7 2 1 0.3 0.2 0.7 0.4 1 0.5l2.7 1.5 260.4 150.4c1 0.6 2 1.2 3.1 1.9 0.1 0 0.1 0.1 0.2 0.1 1 0.6 2 1.3 2.9 2 0.3 0.2 0.7 0.5 1 0.7 0.7 0.5 1.3 0.9 2 1.4l1.2 0.9c0.6 0.4 1.2 0.9 1.7 1.4 0.4 0.3 0.8 0.7 1.3 1 0.6 0.5 1.1 0.9 1.6 1.4 0.4 0.4 0.9 0.7 1.3 1.1 0.5 0.5 1.1 1 1.6 1.4 0.4 0.4 0.9 0.8 1.3 1.2 0.5 0.5 1.1 1 1.6 1.5l1.2 1.2c0.6 0.6 1.1 1.1 1.6 1.7l1.1 1.1c0.6 0.7 1.2 1.4 1.9 2 0.3 0.3 0.5 0.6 0.8 0.8 0.9 1 1.7 2 2.6 3 0.1 0.2 0.3 0.3 0.4 0.5 0.7 0.9 1.4 1.7 2.1 2.6 0.9 1.1 1.8 2.3 2.6 3.5l3.6 5.1c0.3 0.4 0.5 0.8 0.8 1.2 0.4 0.6 0.8 1.3 1.2 1.9 0.4 0.6 0.7 1.1 1.1 1.7 0.4 0.6 0.8 1.3 1.2 1.9 0.3 0.5 0.6 1.1 1 1.6l2.7 4.8 0.9 1.8c0.3 0.6 0.7 1.3 1 1.9 0.4 0.9 0.9 1.8 1.3 2.7 0.1 0.3 0.3 0.6 0.4 0.9 0.5 1.2 1.1 2.3 1.6 3.5 0.1 0.3 0.3 0.6 0.4 0.9 0.4 0.9 0.7 1.7 1.1 2.6 0.2 0.4 0.3 0.8 0.5 1.2 0.3 0.8 0.7 1.7 1 2.5 0.1 0.4 0.3 0.7 0.4 1.1l1.2 3.3c0 0.1 0.1 0.2 0.1 0.3 0.4 1.2 0.8 2.4 1.1 3.6l0.3 1.2c0.2 0.8 0.5 1.7 0.7 2.5 0.1 0.5 0.2 0.9 0.4 1.4 0.2 0.8 0.4 1.5 0.6 2.3 0.1 0.5 0.2 0.9 0.3 1.4 0.2 0.8 0.3 1.6 0.5 2.4 0.1 0.4 0.2 0.8 0.3 1.3 0.2 1 0.4 2.1 0.6 3.1 0 0.2 0.1 0.3 0.1 0.5 0.2 1.2 0.4 2.4 0.5 3.6 0 0.3 0.1 0.7 0.1 1 0.1 0.8 0.2 1.7 0.3 2.5 0 0.4 0.1 0.8 0.1 1.2 0.1 0.8 0.1 1.6 0.1 2.4 0 0.4 0 0.8 0.1 1.1 0 1.1 0.1 2.2 0.1 3.4l-1.2 426.3c-0.1 19.8-7 33.7-18.3 40.2l328.3-190.2c11.2-6.5 18.2-20.4 18.3-40.2l1.2-426.3c-0.2-0.9-0.2-1.9-0.3-2.8z" fill="#337DFF" p-id="1909"></path><path d="M475.4 403.1c34.6 20 62.6 68.4 62.5 108.2l-1.2 426.3c-0.1 39.8-28.3 55.8-62.9 35.8L213.3 823c-34.6-20-62.6-68.4-62.5-108.2l1.2-426.3c0.1-39.8 28.3-55.8 62.9-35.8l260.5 150.4z" fill="#99BEFF" p-id="1910"></path><path d="M459.3 781.7c0.1-0.6 0.2-1.2 0.2-1.8 0-0.4 0.1-0.9 0.1-1.3 0.1-0.6 0.1-1.2 0.2-1.8 0-0.4 0.1-0.9 0.1-1.3 0-0.6 0.1-1.3 0.1-1.9 0-0.3 0-0.6 0.1-0.9v-0.4c0-0.7 0.1-1.5 0.1-2.2V769c0-1.1 0-2.3 0.1-3.4 0-1.7 0-3.4-0.1-5.1v-0.5-0.5c0-0.5 0-1-0.1-1.4 0-0.6-0.1-1.2-0.1-1.7s-0.1-1-0.1-1.5c0-0.6-0.1-1.2-0.1-1.7s-0.1-1-0.1-1.5c-0.1-0.6-0.1-1.2-0.2-1.8 0-0.5-0.1-1-0.2-1.5 0-0.3-0.1-0.6-0.1-0.9 0-0.1 0-0.3-0.1-0.4-0.2-1.8-0.4-3.6-0.7-5.5 0-0.3-0.1-0.6-0.1-0.9-0.3-1.8-0.6-3.7-0.9-5.6 0-0.1 0-0.2-0.1-0.3 0-0.2-0.1-0.3-0.1-0.5-0.4-2-0.8-3.9-1.2-5.9-0.1-0.2-0.1-0.5-0.2-0.7-0.4-2-0.9-4-1.4-5.9 0-0.1 0-0.2-0.1-0.2-0.1-0.4-0.2-0.7-0.3-1.1-0.2-0.7-0.3-1.3-0.5-2-0.1-0.5-0.3-1-0.4-1.5-0.2-0.7-0.4-1.3-0.6-2-0.2-0.5-0.3-1-0.5-1.6-0.2-0.6-0.4-1.3-0.6-1.9-0.2-0.5-0.3-1.1-0.5-1.6-0.2-0.6-0.4-1.3-0.6-1.9-0.1-0.3-0.2-0.5-0.3-0.8-0.1-0.2-0.2-0.4-0.2-0.7-0.3-0.9-0.6-1.7-0.9-2.6-0.1-0.4-0.3-0.8-0.4-1.2-0.4-1.1-0.8-2.3-1.2-3.4 0-0.1-0.1-0.2-0.1-0.4-0.5-1.3-0.9-2.5-1.4-3.8-0.1-0.4-0.3-0.8-0.4-1.1-0.4-0.9-0.7-1.8-1.1-2.7-0.1-0.2-0.2-0.4-0.2-0.6-0.1-0.2-0.2-0.4-0.2-0.5-0.7-1.7-1.4-3.3-2.1-5-0.1-0.2-0.1-0.3-0.2-0.5-0.7-1.6-1.4-3.2-2.2-4.7-0.1-0.2-0.2-0.5-0.3-0.7-0.8-1.6-1.5-3.2-2.3-4.8-0.2-0.3-0.3-0.6-0.5-1-0.8-1.6-1.6-3.2-2.5-4.8 0-0.1-0.1-0.1-0.1-0.2-0.1-0.3-0.3-0.5-0.4-0.8-0.5-0.9-0.9-1.7-1.4-2.6-0.2-0.4-0.5-0.9-0.7-1.3-0.4-0.8-0.9-1.6-1.3-2.4-0.2-0.4-0.5-0.9-0.7-1.3-0.5-0.8-1-1.7-1.5-2.5-0.2-0.3-0.4-0.7-0.6-1-0.7-1.2-1.4-2.4-2.1-3.5-0.1-0.2-0.2-0.3-0.3-0.5-0.6-1-1.3-2-1.9-3-0.2-0.4-0.5-0.8-0.7-1.1-0.5-0.8-1-1.6-1.5-2.3-0.3-0.4-0.6-0.8-0.8-1.2-0.5-0.8-1-1.5-1.5-2.3-0.3-0.4-0.5-0.8-0.8-1.2-0.6-0.9-1.2-1.8-1.8-2.6-0.2-0.2-0.3-0.5-0.5-0.7l-2.4-3.3-0.6-0.9-1.8-2.4c-0.3-0.4-0.6-0.8-0.9-1.1-0.5-0.7-1.1-1.4-1.7-2.1l-0.9-1.2c-0.6-0.7-1.2-1.4-1.8-2.2-0.3-0.3-0.5-0.7-0.8-1-0.9-1-1.7-2.1-2.6-3.1-0.9-1-1.7-2-2.6-3-0.3-0.3-0.6-0.6-0.8-0.9-0.6-0.7-1.2-1.4-1.8-2-0.3-0.4-0.7-0.7-1-1.1-0.6-0.6-1.2-1.3-1.8-1.9l-0.6-0.6-0.3-0.3c-1.2-1.2-2.3-2.4-3.5-3.5l-0.7-0.7c-1.1-1.1-2.3-2.2-3.4-3.3l-0.3-0.3c-1.2-1.1-2.4-2.2-3.7-3.3-0.3-0.2-0.5-0.5-0.8-0.7-1.2-1.1-2.5-2.1-3.7-3.2-0.1 0-0.1-0.1-0.2-0.1-0.2-0.2-0.5-0.4-0.7-0.6-0.7-0.6-1.4-1.1-2-1.7-0.4-0.3-0.7-0.6-1.1-0.9-0.6-0.5-1.3-1-1.9-1.5-0.4-0.3-0.8-0.6-1.1-0.9-0.7-0.5-1.3-1-2-1.5-0.3-0.3-0.7-0.5-1-0.8-0.8-0.6-1.6-1.2-2.5-1.8-0.2-0.1-0.3-0.2-0.5-0.3 0 0-0.1 0-0.1-0.1-0.5-0.4-1-0.7-1.6-1.1-0.4-0.3-0.8-0.6-1.2-0.8-0.5-0.4-1.1-0.7-1.6-1.1-0.4-0.2-0.8-0.5-1.1-0.7-0.6-0.4-1.2-0.8-1.8-1.1-0.3-0.2-0.6-0.4-1-0.6-0.9-0.6-1.9-1.1-2.8-1.7-0.1-0.1-0.2-0.1-0.3-0.2-0.6-0.3-1.1-0.6-1.6-0.9-0.3-0.2-0.6-0.4-1-0.5-0.8-0.4-1.6-0.9-2.4-1.3-0.1-0.1-0.2-0.1-0.3-0.2-0.9-0.5-1.8-0.9-2.7-1.4-0.3-0.1-0.6-0.3-0.8-0.4-0.6-0.3-1.2-0.6-1.8-0.8 0 0-0.1 0-0.1-0.1-0.3-0.1-0.6-0.3-1-0.4-0.6-0.3-1.1-0.5-1.7-0.8-0.4-0.2-0.7-0.3-1.1-0.5-0.5-0.2-1-0.4-1.6-0.6-0.4-0.2-0.8-0.3-1.1-0.4l-1.5-0.6c-0.4-0.1-0.8-0.3-1.1-0.4-0.3-0.1-0.7-0.2-1-0.4-0.2-0.1-0.3-0.1-0.5-0.2-0.4-0.1-0.8-0.3-1.2-0.4-0.5-0.2-0.9-0.3-1.4-0.5-0.4-0.1-0.8-0.2-1.2-0.4-0.5-0.1-0.9-0.3-1.4-0.4l-1.2-0.3c-0.5-0.1-0.9-0.2-1.4-0.4l-1.2-0.3c-0.2-0.1-0.4-0.1-0.7-0.2-0.2 0-0.4-0.1-0.6-0.1-0.4-0.1-0.9-0.2-1.3-0.3-0.4-0.1-0.8-0.2-1.3-0.3-0.4-0.1-0.9-0.2-1.3-0.2-0.4-0.1-0.8-0.1-1.2-0.2-0.4-0.1-0.9-0.1-1.3-0.2s-0.8-0.1-1.2-0.2c-0.4-0.1-0.8-0.1-1.3-0.2-0.2 0-0.4-0.1-0.7-0.1h-0.5c-0.5-0.1-1.1-0.1-1.6-0.1-0.3 0-0.7-0.1-1-0.1-0.6 0-1.2-0.1-1.7-0.1h-3.5c-0.8 0-1.7 0-2.5 0.1h-0.5c-0.8 0.1-1.6 0.1-2.4 0.2-0.3 0-0.5 0.1-0.8 0.1-0.9 0.1-1.8 0.2-2.6 0.4h-0.2c-0.9 0.2-1.8 0.3-2.7 0.5-0.2 0.1-0.5 0.1-0.7 0.2-0.7 0.2-1.4 0.3-2.2 0.5-0.1 0-0.3 0.1-0.4 0.1-0.1 0-0.1 0-0.2 0.1-0.9 0.3-1.9 0.6-2.8 0.9-0.2 0.1-0.4 0.1-0.6 0.2-0.8 0.3-1.7 0.6-2.5 1-0.1 0-0.2 0.1-0.3 0.1l-2.7 1.2-0.6 0.3c-0.9 0.4-1.7 0.9-2.6 1.4l-15.4 8.9c0.9-0.5 1.7-1 2.6-1.4l0.6-0.3 2.7-1.2c0.1 0 0.2-0.1 0.3-0.1 0.8-0.3 1.7-0.7 2.5-1 0.2-0.1 0.4-0.1 0.6-0.2 0.9-0.3 1.9-0.6 2.8-0.9 0.2-0.1 0.4-0.1 0.6-0.2 0.7-0.2 1.4-0.4 2.2-0.5 0.2-0.1 0.5-0.1 0.7-0.2 0.9-0.2 1.8-0.4 2.7-0.5h0.2c0.9-0.1 1.7-0.3 2.6-0.4 0.3 0 0.5-0.1 0.8-0.1 0.8-0.1 1.6-0.1 2.4-0.2h0.5c0.8 0 1.7-0.1 2.5-0.1h3.5c0.6 0 1.2 0 1.7 0.1 0.3 0 0.7 0 1 0.1 0.5 0 1.1 0.1 1.6 0.1 0.4 0 0.8 0.1 1.2 0.1 0.4 0 0.8 0.1 1.3 0.2 0.4 0.1 0.8 0.1 1.2 0.2 0.4 0.1 0.9 0.1 1.3 0.2s0.8 0.1 1.2 0.2c0.4 0.1 0.9 0.2 1.3 0.2 0.4 0.1 0.8 0.2 1.3 0.3 0.4 0.1 0.9 0.2 1.3 0.3 0.4 0.1 0.9 0.2 1.3 0.3l1.2 0.3c0.5 0.1 0.9 0.2 1.4 0.4l1.2 0.3c0.5 0.1 0.9 0.3 1.4 0.4 0.4 0.1 0.8 0.2 1.2 0.4 0.5 0.1 0.9 0.3 1.4 0.5 0.4 0.1 0.8 0.3 1.2 0.4 0.5 0.2 1 0.3 1.4 0.5 0.4 0.1 0.8 0.3 1.1 0.4l1.5 0.6c0.4 0.1 0.7 0.3 1.1 0.4 0.5 0.2 1 0.4 1.6 0.6 0.4 0.2 0.7 0.3 1.1 0.5 0.6 0.2 1.1 0.5 1.7 0.8 0.3 0.1 0.6 0.3 1 0.4 0.6 0.3 1.3 0.6 1.9 0.9 0.3 0.1 0.5 0.3 0.8 0.4 0.9 0.4 1.8 0.9 2.7 1.4 0.1 0.1 0.2 0.1 0.4 0.2 0.8 0.4 1.6 0.8 2.4 1.3 0.3 0.2 0.7 0.4 1 0.5 0.6 0.4 1.3 0.7 1.9 1.1 0.9 0.5 1.9 1.1 2.8 1.7l0.9 0.6c0.6 0.4 1.2 0.8 1.9 1.2 0.4 0.2 0.7 0.5 1.1 0.7 0.6 0.4 1.1 0.7 1.7 1.1 0.4 0.3 0.8 0.5 1.2 0.8 0.5 0.4 1 0.7 1.6 1.1 0.2 0.1 0.4 0.3 0.6 0.4 0.8 0.6 1.6 1.2 2.5 1.8 0.3 0.3 0.7 0.5 1 0.8 0.7 0.5 1.3 1 2 1.5 0.4 0.3 0.8 0.6 1.1 0.9 0.6 0.5 1.3 1 1.9 1.5 0.4 0.3 0.7 0.6 1.1 0.9 0.7 0.6 1.4 1.1 2 1.7 0.3 0.2 0.6 0.5 0.9 0.7 1.2 1 2.5 2.1 3.7 3.2 0.3 0.2 0.5 0.5 0.8 0.7 1.2 1.1 2.5 2.2 3.7 3.4l0.3 0.3c1.1 1.1 2.3 2.2 3.4 3.3l0.7 0.7 3.5 3.5 0.9 0.9c0.6 0.6 1.2 1.3 1.8 1.9 0.3 0.4 0.7 0.7 1 1.1 0.6 0.7 1.2 1.4 1.8 2 0.3 0.3 0.6 0.6 0.9 1 0.9 1 1.8 2 2.6 3 0.9 1 1.7 2 2.6 3.1 0.3 0.3 0.5 0.7 0.8 1 0.6 0.7 1.2 1.4 1.8 2.2l0.9 1.2c0.6 0.7 1.1 1.4 1.6 2.1 0.3 0.4 0.6 0.8 0.9 1.1l1.8 2.4 0.6 0.9 2.4 3.3c0.2 0.2 0.3 0.5 0.5 0.7 0.6 0.9 1.2 1.7 1.8 2.6 0.3 0.4 0.5 0.8 0.8 1.2 0.5 0.8 1 1.5 1.5 2.3 0.3 0.4 0.6 0.8 0.8 1.3 0.5 0.8 1 1.5 1.5 2.3 0.2 0.4 0.5 0.8 0.7 1.2 0.6 1 1.3 2 1.9 3 0.1 0.2 0.2 0.3 0.3 0.5 0.7 1.2 1.4 2.3 2.1 3.5 0.2 0.4 0.4 0.7 0.6 1.1 0.5 0.8 1 1.7 1.5 2.5 0.2 0.4 0.5 0.9 0.7 1.3 0.4 0.8 0.9 1.6 1.3 2.4 0.2 0.4 0.5 0.9 0.7 1.3 0.5 0.9 0.9 1.7 1.4 2.6 0.2 0.3 0.4 0.7 0.5 1 0.8 1.6 1.7 3.2 2.5 4.8 0.2 0.3 0.3 0.6 0.5 1 0.8 1.6 1.6 3.2 2.3 4.8 0.1 0.2 0.2 0.5 0.3 0.7 0.7 1.6 1.4 3.2 2.1 4.7 0.1 0.2 0.1 0.3 0.2 0.5 0.7 1.7 1.4 3.3 2.1 5 0.2 0.4 0.3 0.7 0.5 1.1 0.4 0.9 0.7 1.8 1.1 2.7 0.2 0.4 0.3 0.8 0.5 1.1 0.5 1.3 1 2.5 1.4 3.8 0 0.1 0.1 0.3 0.1 0.4 0.4 1.1 0.8 2.3 1.2 3.4 0.1 0.4 0.3 0.8 0.4 1.2 0.3 0.9 0.6 1.7 0.9 2.6 0.2 0.5 0.3 1 0.5 1.5 0.2 0.6 0.4 1.3 0.6 1.9 0.2 0.5 0.3 1 0.5 1.6 0.2 0.6 0.4 1.3 0.6 1.9 0.2 0.5 0.3 1 0.5 1.6 0.2 0.7 0.4 1.3 0.6 2 0.1 0.5 0.3 1 0.4 1.6 0.2 0.7 0.4 1.3 0.5 2 0.1 0.5 0.2 0.9 0.4 1.4 0.5 2 1 4 1.4 5.9 0.1 0.2 0.1 0.5 0.2 0.7 0.4 2 0.8 3.9 1.2 5.9 0 0.3 0.1 0.5 0.1 0.8 0.3 1.9 0.6 3.7 0.9 5.6 0 0.3 0.1 0.6 0.1 0.9 0.3 1.8 0.5 3.7 0.7 5.5 0.1 0.5 0.1 0.9 0.2 1.4 0.1 0.5 0.1 1 0.2 1.5 0.1 0.6 0.1 1.2 0.2 1.7 0 0.5 0.1 1 0.1 1.5 0 0.6 0.1 1.2 0.1 1.7s0.1 1 0.1 1.5c0 0.6 0.1 1.2 0.1 1.7s0 1 0.1 1.4v1c0.1 1.7 0.1 3.4 0.1 5.1 0 1.1 0 2.3-0.1 3.4v1.1c0 0.7-0.1 1.5-0.1 2.2 0 0.4-0.1 0.9-0.1 1.3 0 0.6-0.1 1.3-0.1 1.9 0 0.4-0.1 0.9-0.1 1.3-0.1 0.6-0.1 1.2-0.2 1.8 0 0.4-0.1 0.9-0.1 1.3-0.1 0.6-0.1 1.2-0.2 1.8-0.1 0.4-0.1 0.9-0.2 1.3l-0.3 1.8c-0.1 0.4-0.1 0.8-0.2 1.2-0.2 1.1-0.4 2.3-0.6 3.4 0 0.2-0.1 0.4-0.1 0.6-0.2 0.9-0.4 1.9-0.6 2.8-0.1 0.3-0.2 0.6-0.2 0.9-0.2 0.9-0.5 1.8-0.7 2.7 0 0.2-0.1 0.3-0.1 0.5-0.3 1-0.6 2.1-0.9 3.1l-0.3 0.9-0.6 1.8c-0.1 0.3-0.2 0.6-0.4 1-0.2 0.6-0.5 1.2-0.7 1.8-0.1 0.3-0.2 0.5-0.3 0.8-0.3 0.8-0.7 1.6-1.1 2.4v0.1l-1.2 2.4c-0.1 0.2-0.3 0.5-0.4 0.7-0.3 0.6-0.6 1.1-0.9 1.6-0.2 0.3-0.3 0.5-0.5 0.8l-0.9 1.5c-0.2 0.3-0.3 0.5-0.5 0.8-0.4 0.6-0.8 1.2-1.1 1.7-0.1 0.1-0.2 0.3-0.3 0.4-0.5 0.7-1 1.4-1.5 2-0.1 0.2-0.3 0.4-0.4 0.5-0.4 0.5-0.8 1-1.2 1.4-0.2 0.2-0.4 0.4-0.6 0.7-0.4 0.4-0.7 0.8-1.1 1.2l-0.6 0.6c-0.4 0.4-0.8 0.9-1.2 1.3l-0.5 0.5c-0.6 0.6-1.2 1.1-1.8 1.7l-0.3 0.3c-0.5 0.4-1 0.9-1.5 1.3-0.2 0.2-0.4 0.3-0.6 0.5-0.4 0.3-0.9 0.7-1.3 1-0.2 0.2-0.5 0.3-0.7 0.5-0.5 0.3-0.9 0.6-1.4 0.9-0.2 0.1-0.4 0.3-0.6 0.4-0.7 0.4-1.3 0.9-2 1.3l15.4-8.9c0.7-0.4 1.4-0.8 2-1.3 0.2-0.1 0.4-0.3 0.6-0.4 0.5-0.3 0.9-0.6 1.4-0.9 0.2-0.2 0.5-0.3 0.7-0.5 0.4-0.3 0.9-0.6 1.3-1 0.2-0.2 0.4-0.3 0.6-0.5 0.5-0.4 1-0.8 1.5-1.3l0.3-0.3c0.6-0.5 1.2-1.1 1.8-1.7l0.5-0.5c0.4-0.4 0.8-0.8 1.2-1.3l0.6-0.6c0.4-0.4 0.7-0.8 1.1-1.2 0.2-0.2 0.4-0.4 0.6-0.7 0.4-0.5 0.8-1 1.2-1.4 0.1-0.2 0.3-0.4 0.4-0.5 0.5-0.7 1-1.4 1.5-2 0.1-0.1 0.2-0.3 0.3-0.4 0.4-0.6 0.8-1.1 1.1-1.7 0.2-0.2 0.3-0.5 0.5-0.8l0.9-1.5c0.2-0.3 0.3-0.5 0.5-0.8 0.3-0.5 0.6-1.1 0.9-1.6 0.1-0.2 0.3-0.5 0.4-0.7l1.2-2.4v-0.1c0.4-0.8 0.7-1.6 1.1-2.4 0.1-0.3 0.2-0.6 0.3-0.8 0.2-0.6 0.5-1.2 0.7-1.8 0.1-0.3 0.2-0.6 0.4-1l0.6-1.8c0.1-0.2 0.1-0.4 0.2-0.6 0-0.1 0.1-0.2 0.1-0.3 0.3-1 0.6-2 0.9-3.1 0-0.2 0.1-0.3 0.1-0.5 0.3-0.9 0.5-1.8 0.7-2.7 0.1-0.3 0.2-0.6 0.2-0.9 0.2-0.9 0.4-1.8 0.6-2.8 0-0.2 0.1-0.4 0.1-0.6 0.2-1.1 0.4-2.3 0.6-3.4 0-0.1 0-0.2 0.1-0.3 0-0.3 0.1-0.6 0.1-0.8l0.3-1.8c0-1.2 0-1.6 0.1-2.1z" fill="#FFDEDE" p-id="1911"></path><path d="M337 587.4c59.8 34.5 108.2 118.3 108 187-0.2 68.7-48.8 96.5-108.7 61.9s-108.2-118.3-108-187c0.2-68.7 48.9-96.4 108.7-61.9z" fill="#FFFFFF" p-id="1912"></path><path d="M336.8 646.3c31.5 18.2 56.9 62.3 56.8 98.5-0.1 36.2-25.7 50.8-57.2 32.6-31.5-18.2-56.9-62.3-56.8-98.5 0.1-36.2 25.7-50.7 57.2-32.6z" fill="#FFE872" p-id="1913"></path><path d="M413.4 506c0-0.4 0.1-0.7 0.1-1.1 0-0.3 0.1-0.5 0.1-0.8 0-0.4 0.1-0.7 0.1-1.1 0-0.3 0-0.5 0.1-0.8 0-0.4 0.1-0.8 0.1-1.2v-0.6-0.2c0-0.4 0-0.9 0.1-1.3v-0.7-2-3.1-0.3-0.3-0.9c0-0.3 0-0.7-0.1-1 0-0.3 0-0.6-0.1-0.9 0-0.3 0-0.7-0.1-1.1 0-0.3 0-0.6-0.1-0.9 0-0.4-0.1-0.7-0.1-1.1 0-0.3-0.1-0.6-0.1-0.9 0-0.2 0-0.4-0.1-0.6v-0.3c-0.1-1.1-0.3-2.2-0.4-3.3 0-0.2-0.1-0.3-0.1-0.5l-0.6-3.3v-0.2c0-0.1 0-0.2-0.1-0.3-0.2-1.2-0.5-2.4-0.7-3.5 0-0.1-0.1-0.3-0.1-0.4-0.3-1.2-0.5-2.4-0.8-3.6v-0.1c-0.1-0.2-0.1-0.4-0.2-0.7l-0.3-1.2-0.3-0.9-0.3-1.2-0.3-0.9-0.3-1.2-0.3-0.9c-0.1-0.4-0.2-0.8-0.4-1.2-0.1-0.2-0.1-0.3-0.2-0.5 0-0.1-0.1-0.3-0.1-0.4-0.2-0.5-0.3-1-0.5-1.6-0.1-0.2-0.2-0.5-0.3-0.7-0.2-0.7-0.5-1.4-0.7-2.1 0-0.1-0.1-0.1-0.1-0.2-0.3-0.8-0.6-1.5-0.9-2.3-0.1-0.2-0.2-0.5-0.3-0.7-0.2-0.5-0.4-1.1-0.6-1.6 0-0.1-0.1-0.2-0.1-0.4 0-0.1-0.1-0.2-0.1-0.3-0.4-1-0.8-2-1.3-3 0-0.1-0.1-0.2-0.1-0.3-0.4-1-0.9-1.9-1.3-2.9-0.1-0.1-0.1-0.3-0.2-0.4-0.5-1-0.9-1.9-1.4-2.9l-0.3-0.6c-0.5-1-1-1.9-1.5-2.9 0 0 0-0.1-0.1-0.1-0.1-0.2-0.2-0.3-0.3-0.5-0.3-0.5-0.6-1-0.8-1.5-0.1-0.3-0.3-0.5-0.4-0.8-0.3-0.5-0.5-0.9-0.8-1.4-0.1-0.3-0.3-0.5-0.4-0.8l-0.9-1.5c-0.1-0.2-0.2-0.4-0.4-0.6-0.4-0.7-0.8-1.4-1.3-2.1-0.1-0.1-0.1-0.2-0.2-0.3-0.4-0.6-0.8-1.2-1.1-1.8-0.1-0.2-0.3-0.5-0.4-0.7-0.3-0.5-0.6-0.9-0.9-1.4-0.2-0.3-0.3-0.5-0.5-0.8-0.3-0.5-0.6-0.9-0.9-1.4-0.2-0.2-0.3-0.5-0.5-0.7-0.4-0.5-0.7-1.1-1.1-1.6-0.1-0.1-0.2-0.3-0.3-0.4-0.5-0.7-1-1.3-1.4-2-0.1-0.2-0.3-0.3-0.4-0.5-0.4-0.5-0.7-1-1.1-1.4-0.2-0.2-0.4-0.5-0.5-0.7-0.3-0.4-0.7-0.8-1-1.3-0.2-0.2-0.4-0.5-0.6-0.7-0.3-0.4-0.7-0.9-1.1-1.3-0.2-0.2-0.3-0.4-0.5-0.6l-1.5-1.8c-0.5-0.6-1-1.2-1.6-1.8-0.2-0.2-0.3-0.4-0.5-0.6-0.4-0.4-0.7-0.8-1.1-1.2l-0.6-0.6c-0.4-0.4-0.7-0.8-1.1-1.2-0.1-0.1-0.2-0.3-0.4-0.4l-0.2-0.2-2.1-2.1-0.4-0.4c-0.7-0.7-1.4-1.3-2-2l-0.2-0.2c-0.7-0.7-1.5-1.4-2.2-2-0.2-0.1-0.3-0.3-0.5-0.4-0.7-0.7-1.5-1.3-2.2-1.9l-0.1-0.1c-0.1-0.1-0.3-0.2-0.4-0.3-0.4-0.3-0.8-0.7-1.2-1-0.2-0.2-0.4-0.3-0.7-0.5-0.4-0.3-0.8-0.6-1.1-0.9-0.2-0.2-0.5-0.3-0.7-0.5l-1.2-0.9c-0.2-0.2-0.4-0.3-0.6-0.5-0.5-0.4-1-0.7-1.5-1.1-0.1-0.1-0.2-0.1-0.3-0.2l-0.9-0.6c-0.2-0.2-0.5-0.3-0.7-0.5-0.3-0.2-0.7-0.4-1-0.6-0.2-0.1-0.5-0.3-0.7-0.4-0.4-0.2-0.7-0.5-1.1-0.7-0.2-0.1-0.4-0.2-0.6-0.4-0.6-0.3-1.1-0.7-1.7-1-0.1 0-0.1-0.1-0.2-0.1-0.3-0.2-0.7-0.4-1-0.6l-0.6-0.3c-0.5-0.3-1-0.5-1.4-0.8-0.1 0-0.1-0.1-0.2-0.1-0.5-0.3-1.1-0.6-1.6-0.8-0.2-0.1-0.3-0.2-0.5-0.2-0.4-0.2-0.7-0.3-1.1-0.5h-0.1l-0.6-0.3c-0.3-0.2-0.7-0.3-1-0.5-0.2-0.1-0.4-0.2-0.7-0.3-0.3-0.1-0.6-0.3-0.9-0.4-0.2-0.1-0.5-0.2-0.7-0.3l-0.9-0.3c-0.2-0.1-0.5-0.2-0.7-0.3-0.2-0.1-0.4-0.1-0.6-0.2-0.1 0-0.2-0.1-0.3-0.1-0.2-0.1-0.5-0.2-0.7-0.2-0.3-0.1-0.6-0.2-0.8-0.3-0.2-0.1-0.5-0.1-0.7-0.2-0.3-0.1-0.6-0.2-0.8-0.2-0.2-0.1-0.5-0.1-0.7-0.2-0.3-0.1-0.5-0.1-0.8-0.2-0.2-0.1-0.5-0.1-0.7-0.2-0.1 0-0.3-0.1-0.4-0.1-0.1 0-0.3-0.1-0.4-0.1-0.3-0.1-0.5-0.1-0.8-0.2-0.3-0.1-0.5-0.1-0.8-0.2-0.3-0.1-0.5-0.1-0.8-0.1-0.3 0-0.5-0.1-0.7-0.1-0.3 0-0.5-0.1-0.8-0.1-0.2 0-0.5-0.1-0.7-0.1-0.3 0-0.5-0.1-0.8-0.1h-0.7c-0.3 0-0.7-0.1-1-0.1h-3.5-0.1c-0.5 0-1 0-1.5 0.1H317.5c-0.5 0-1 0.1-1.4 0.1-0.2 0-0.3 0-0.5 0.1-0.5 0.1-1.1 0.1-1.6 0.2h-0.1c-0.6 0.1-1.1 0.2-1.7 0.3-0.1 0-0.3 0.1-0.4 0.1-0.4 0.1-0.9 0.2-1.3 0.3-0.1 0-0.2 0-0.3 0.1h-0.1c-0.6 0.2-1.1 0.3-1.7 0.5-0.1 0-0.2 0.1-0.4 0.1l-1.5 0.6c-0.1 0-0.1 0.1-0.2 0.1-0.5 0.2-1.1 0.5-1.6 0.7-0.1 0.1-0.2 0.1-0.4 0.2-0.5 0.3-1.1 0.5-1.6 0.8l-9.2 5.4c0.5-0.3 1-0.6 1.6-0.8 0.1-0.1 0.2-0.1 0.4-0.2 0.5-0.3 1.1-0.5 1.6-0.7 0.1 0 0.1-0.1 0.2-0.1l1.5-0.6c0.1 0 0.2-0.1 0.4-0.1 0.6-0.2 1.1-0.4 1.7-0.5 0.1 0 0.2-0.1 0.4-0.1 0.4-0.1 0.9-0.2 1.3-0.3 0.1 0 0.3-0.1 0.4-0.1 0.5-0.1 1.1-0.2 1.7-0.3h0.1c0.5-0.1 1-0.2 1.6-0.2 0.2 0 0.3 0 0.5-0.1 0.5 0 1-0.1 1.4-0.1h0.3c0.5 0 1 0 1.5-0.1h3.6c0.3 0 0.7 0.1 1 0.1 0.2 0 0.5 0 0.7 0.1 0.3 0 0.5 0.1 0.8 0.1 0.2 0 0.5 0.1 0.7 0.1 0.3 0 0.5 0.1 0.8 0.1 0.2 0 0.5 0.1 0.7 0.1 0.3 0 0.5 0.1 0.8 0.1 0.3 0 0.5 0.1 0.8 0.2 0.3 0.1 0.5 0.1 0.8 0.2 0.3 0.1 0.5 0.1 0.8 0.2 0.2 0.1 0.5 0.1 0.7 0.2 0.3 0.1 0.5 0.1 0.8 0.2 0.2 0.1 0.5 0.1 0.7 0.2 0.3 0.1 0.5 0.2 0.8 0.2 0.2 0.1 0.5 0.1 0.7 0.2 0.3 0.1 0.6 0.2 0.8 0.3 0.2 0.1 0.5 0.2 0.7 0.2l0.9 0.3c0.2 0.1 0.5 0.2 0.7 0.3l0.9 0.3c0.2 0.1 0.5 0.2 0.7 0.3 0.3 0.1 0.6 0.3 0.9 0.4l0.6 0.3c0.3 0.1 0.7 0.3 1 0.5l0.6 0.3c0.4 0.2 0.8 0.4 1.1 0.5 0.2 0.1 0.3 0.2 0.5 0.2 0.5 0.3 1.1 0.5 1.6 0.8 0.1 0 0.1 0.1 0.2 0.1 0.5 0.2 0.9 0.5 1.4 0.8l0.6 0.3c0.4 0.2 0.8 0.4 1.1 0.6 0.6 0.3 1.1 0.7 1.7 1l0.6 0.3c0.4 0.2 0.7 0.5 1.1 0.7 0.2 0.1 0.4 0.3 0.7 0.4 0.3 0.2 0.7 0.4 1 0.7 0.2 0.2 0.5 0.3 0.7 0.5l0.9 0.6c0.1 0.1 0.2 0.2 0.3 0.2 0.5 0.3 1 0.7 1.5 1.1 0.2 0.2 0.4 0.3 0.6 0.5l1.2 0.9c0.2 0.2 0.5 0.3 0.7 0.5 0.4 0.3 0.8 0.6 1.1 0.9 0.2 0.2 0.4 0.3 0.7 0.5 0.4 0.3 0.8 0.7 1.2 1 0.2 0.1 0.3 0.3 0.5 0.4 0.7 0.6 1.5 1.3 2.2 1.9 0.2 0.1 0.3 0.3 0.5 0.4 0.7 0.7 1.5 1.3 2.2 2l0.2 0.2c0.7 0.6 1.4 1.3 2.1 2l0.4 0.4 2.1 2.1c0.2 0.2 0.4 0.4 0.5 0.6 0.4 0.4 0.7 0.8 1.1 1.1l0.6 0.6c0.4 0.4 0.7 0.8 1.1 1.2 0.2 0.2 0.3 0.4 0.5 0.6 0.5 0.6 1.1 1.2 1.6 1.8l1.5 1.8c0.2 0.2 0.3 0.4 0.5 0.6 0.4 0.4 0.7 0.9 1.1 1.3 0.2 0.2 0.4 0.5 0.6 0.7 0.3 0.4 0.7 0.8 1 1.3 0.2 0.2 0.4 0.5 0.5 0.7 0.4 0.5 0.7 1 1.1 1.4 0.1 0.2 0.3 0.3 0.4 0.5 0.5 0.7 1 1.3 1.4 2 0.1 0.1 0.2 0.3 0.3 0.4 0.4 0.5 0.7 1.1 1.1 1.6 0.2 0.2 0.3 0.5 0.5 0.7 0.3 0.5 0.6 0.9 0.9 1.4 0.2 0.2 0.3 0.5 0.5 0.8 0.3 0.5 0.6 0.9 0.9 1.4 0.1 0.2 0.3 0.5 0.4 0.7 0.4 0.6 0.8 1.2 1.1 1.8 0.1 0.1 0.1 0.2 0.2 0.3 0.4 0.7 0.9 1.4 1.3 2.1 0.1 0.2 0.2 0.4 0.4 0.6l0.9 1.5c0.1 0.3 0.3 0.5 0.4 0.8 0.3 0.5 0.5 0.9 0.8 1.4 0.1 0.3 0.3 0.5 0.4 0.8 0.3 0.5 0.6 1 0.8 1.6l0.3 0.6c0.5 1 1 1.9 1.5 2.9l0.3 0.6c0.5 1 0.9 1.9 1.4 2.9 0.1 0.1 0.1 0.3 0.2 0.4 0.4 0.9 0.9 1.9 1.3 2.9 0 0.1 0.1 0.2 0.1 0.3 0.4 1 0.9 2 1.3 3 0.1 0.2 0.2 0.4 0.3 0.7 0.2 0.5 0.4 1.1 0.6 1.6 0.1 0.2 0.2 0.5 0.3 0.7 0.3 0.8 0.6 1.5 0.9 2.3 0 0.1 0.1 0.2 0.1 0.2 0.3 0.7 0.5 1.4 0.7 2.1 0.1 0.2 0.2 0.5 0.3 0.7 0.2 0.5 0.4 1 0.5 1.6l0.3 0.9c0.1 0.4 0.2 0.8 0.4 1.2l0.3 0.9c0.1 0.4 0.2 0.8 0.4 1.2l0.3 0.9 0.3 1.2 0.3 0.9 0.3 1.2c0.1 0.3 0.1 0.6 0.2 0.8 0.3 1.2 0.6 2.4 0.8 3.6 0 0.1 0.1 0.3 0.1 0.4 0.3 1.2 0.5 2.4 0.7 3.5 0 0.2 0.1 0.3 0.1 0.5l0.6 3.3c0 0.2 0.1 0.4 0.1 0.5 0.2 1.1 0.3 2.2 0.4 3.3 0 0.3 0.1 0.5 0.1 0.8 0 0.3 0.1 0.6 0.1 0.9 0 0.3 0.1 0.7 0.1 1 0 0.3 0.1 0.6 0.1 0.9 0 0.3 0.1 0.7 0.1 1 0 0.3 0 0.6 0.1 0.9 0 0.4 0 0.7 0.1 1v1.5c0 1 0.1 2.1 0 3.1v2.7c0 0.4 0 0.9-0.1 1.3v0.8c0 0.4 0 0.8-0.1 1.2 0 0.3 0 0.5-0.1 0.8 0 0.4-0.1 0.7-0.1 1.1 0 0.3-0.1 0.5-0.1 0.8 0 0.4-0.1 0.7-0.1 1.1 0 0.3-0.1 0.5-0.1 0.8-0.1 0.4-0.1 0.7-0.2 1.1 0 0.2-0.1 0.5-0.1 0.7-0.1 0.7-0.2 1.4-0.4 2 0 0.1 0 0.2-0.1 0.3-0.1 0.6-0.2 1.1-0.4 1.7 0 0.2-0.1 0.4-0.1 0.6-0.1 0.6-0.3 1.1-0.4 1.6 0 0.1-0.1 0.2-0.1 0.3l-0.6 1.8c-0.1 0.2-0.1 0.4-0.2 0.5-0.1 0.4-0.3 0.7-0.4 1.1-0.1 0.2-0.1 0.4-0.2 0.6-0.1 0.4-0.3 0.7-0.4 1.1-0.1 0.2-0.1 0.3-0.2 0.5l-0.6 1.5v0.1c-0.2 0.5-0.5 1-0.7 1.5-0.1 0.1-0.2 0.3-0.2 0.4-0.2 0.3-0.4 0.7-0.5 1-0.1 0.2-0.2 0.3-0.3 0.5-0.2 0.3-0.4 0.6-0.5 0.9-0.1 0.2-0.2 0.3-0.3 0.5-0.2 0.3-0.5 0.7-0.7 1-0.1 0.1-0.1 0.2-0.2 0.3l-0.9 1.2-0.3 0.3c-0.2 0.3-0.5 0.6-0.7 0.9-0.1 0.1-0.2 0.3-0.3 0.4-0.2 0.3-0.4 0.5-0.7 0.7-0.1 0.1-0.2 0.3-0.4 0.4-0.2 0.3-0.5 0.5-0.7 0.8l-0.3 0.3c-0.3 0.3-0.7 0.7-1.1 1l-0.2 0.2c-0.3 0.3-0.6 0.5-0.9 0.8-0.1 0.1-0.3 0.2-0.4 0.3-0.3 0.2-0.5 0.4-0.8 0.6-0.1 0.1-0.3 0.2-0.4 0.3-0.3 0.2-0.5 0.4-0.8 0.6-0.1 0.1-0.2 0.2-0.4 0.2-0.4 0.3-0.8 0.5-1.2 0.8l9.2-5.4c0.4-0.2 0.8-0.5 1.2-0.8 0.1-0.1 0.3-0.2 0.4-0.2 0.3-0.2 0.6-0.4 0.8-0.6 0.1-0.1 0.3-0.2 0.4-0.3 0.3-0.2 0.5-0.4 0.8-0.6 0.1-0.1 0.3-0.2 0.4-0.3 0.3-0.2 0.6-0.5 0.9-0.8l0.2-0.2c0.4-0.3 0.7-0.7 1.1-1l0.3-0.3 0.8-0.8c0.1-0.1 0.2-0.3 0.4-0.4 0.2-0.2 0.4-0.5 0.7-0.7 0.1-0.1 0.2-0.3 0.3-0.4 0.2-0.3 0.5-0.6 0.7-0.9l0.3-0.3 0.9-1.2c0.1-0.1 0.1-0.2 0.2-0.3 0.2-0.3 0.5-0.7 0.7-1 0.1-0.1 0.2-0.3 0.3-0.5 0.2-0.3 0.4-0.6 0.5-0.9 0.1-0.2 0.2-0.3 0.3-0.5 0.2-0.3 0.4-0.6 0.5-1 0.1-0.1 0.2-0.3 0.2-0.4 0.2-0.5 0.5-1 0.7-1.5v-0.1l0.6-1.5c0.1-0.2 0.1-0.3 0.2-0.5 0.1-0.4 0.3-0.7 0.4-1.1 0.1-0.2 0.1-0.4 0.2-0.6 0.1-0.4 0.3-0.7 0.4-1.1 0-0.1 0.1-0.2 0.1-0.4 0-0.1 0-0.1 0.1-0.2l0.6-1.8c0-0.1 0.1-0.2 0.1-0.3 0.2-0.5 0.3-1.1 0.4-1.6 0-0.2 0.1-0.4 0.1-0.6 0.1-0.6 0.3-1.1 0.4-1.7 0-0.1 0-0.2 0.1-0.3 0.1-0.7 0.3-1.4 0.4-2v-0.2c0-0.2 0-0.3 0.1-0.5 0.1-0.4 0.1-0.7 0.2-1.1 0.1 0.1 0.2-0.1 0.2-0.4z" fill="#FFDEDE" p-id="1914"></path><path d="M339.9 389.2c36 20.8 65 71.1 64.9 112.4-0.1 41.3-29.4 58-65.3 37.2s-65-71.1-64.9-112.4c0.1-41.3 29.4-57.9 65.3-37.2z" fill="#FFFFFF" p-id="1915"></path></svg>